<?xml version="1.0" encoding="utf-8" ?>
<svg baseProfile="full" height="200mm" version="1.1" viewBox="0,0,200,200" width="200mm" xmlns="http://www.w3.org/2000/svg" xmlns:ev="http://www.w3.org/2001/xml-events" xmlns:xlink="http://www.w3.org/1999/xlink"><defs /><rect fill="#1a1a1a" height="200" width="200" x="0" y="0" /><text alignment-baseline="middle" fill="#e1ed5e" style="dominant-baseline: central; font-size:9.0px; font-family:Arial;" text-anchor="middle" x="100.0" y="100.0">2022</text><line stroke="#e1ed5e" stroke-width="0.3" x1="100.0" x2="100.0" y1="15.0" y2="10.0" /><path d="M 100.0 14.0 a86.0,86.0 0 0,1 42.46469731375804,11.215312516191453" fill="none" id="id25" stroke="none" /><text fill="#e1ed5e" style="font-size:6.75px; font-family:Arial;" text-anchor="middle"><textPath startOffset="22.20632615414155" xlink:href="#id25">January</textPath></text><line stroke="#e1ed5e" stroke-width="0.3" x1="143.23703022742887" x2="145.7803849466894" y1="26.818313649435467" y2="22.513508569990506" /><path d="M 143.74570117128098 25.957352633546478 a86.0,86.0 0 0,1 28.547481713284135,27.462654790039114" fill="none" id="id26" stroke="none" /><text fill="#e1ed5e" style="font-size:6.75px; font-family:Arial;" text-anchor="middle"><textPath startOffset="19.985693538727396" xlink:href="#id26">February</textPath></text><line stroke="#e1ed5e" stroke-width="0.3" x1="172.23445277983987" x2="176.4835382374775" y1="55.19839476539836" y2="52.563006222186495" /><path d="M 173.08426987136738 54.67131705675599 a86.0,86.0 0 0,1 12.851231095245387,41.99856678651699" fill="none" id="id27" stroke="none" /><text fill="#e1ed5e" style="font-size:6.75px; font-family:Arial;" text-anchor="middle"><textPath startOffset="22.20632615414155" xlink:href="#id27">March</textPath></text><line stroke="#e1ed5e" stroke-width="0.3" x1="184.98032266829074" x2="189.97916517819016" y1="98.17113171792111" y2="98.06355123074" /><path d="M 185.9800911702706 98.14961562048488 a86.0,86.0 0 0,1 -9.607161424134198,41.387399972396054" fill="none" id="id28" stroke="none" /><text fill="#e1ed5e" style="font-size:6.75px; font-family:Arial;" text-anchor="middle"><textPath startOffset="21.466115282336823" xlink:href="#id28">April</textPath></text><line stroke="#e1ed5e" stroke-width="0.3" x1="174.80103733775053" x2="179.2010983576182" y1="140.37084112569926" y2="142.7455964860345" /><path d="M 175.68104954172406 140.8457921977663 a86.0,86.0 0 0,1 -30.038265399797805,32.042727171017184" fill="none" id="id29" stroke="none" /><text fill="#e1ed5e" style="font-size:6.75px; font-family:Arial;" text-anchor="middle"><textPath startOffset="22.206326154141568" xlink:href="#id29">May</textPath></text><path d="M 116.0416608686014 113.55231037782055 l 19.086611646626555 16.12474463927249 a45.98611882287618,45.98611882287618 0 0,0 -0.5160463503037556,0.6002784900013987 l -18.806222786752016 -16.45090022843542" fill="#ff3505" stroke="none" /><path d="M 115.80600337817218 113.82643327865902 l 18.806222786752016 16.45090022843542 a45.98611882287618,45.98611882287618 0 0,0 -0.5263026999094462,0.5913066626448769 l -18.520261237194234 -16.77218106082116" fill="#ff3505" stroke="none" /><path d="M 115.32070863581623 114.36230785411682 l 19.657950574519198 18.42822970160972 a47.94503053858968,47.94503053858968 0 0,0 -0.569617667300653,0.5972418468633113 l -19.33782635583958 -18.763878665055536" fill="#ff5f08" stroke="none" /><path d="M 114.81725581225074 114.88116024355365 l 17.629795921611887 17.705830384175837 a45.98611882287618,45.98611882287618 0 0,0 -0.5657388565686879,0.553694543397844 l -17.322407112667403 -18.00667503049625" fill="#ff3505" stroke="none" /><path d="M 114.0293411484842 115.62618273729858 l 16.692323092509163 18.59226945819613 a45.98611882287618,45.98611882287618 0 0,0 -0.5935661508136617,0.5237531153400827 l -16.369814588788916 -18.8768457153085" fill="#ff3505" stroke="none" /><path d="M 113.75828350139079 115.86535959552629 l 16.369814588788916 18.8768457153085 a45.98611882287618,45.98611882287618 0 0,0 -0.6024937564953959,0.5134582501082816 l -16.042455355716474 -19.15582835563973" fill="#ff3505" stroke="none" /><path d="M 112.63410532772338 116.77436683061366 l 15.032250330439487 19.95839632420123 a45.98611882287618,45.98611882287618 0 0,0 -0.6363932039069323,0.47078847823758196 l -14.68647215611399 -20.214194751178585" fill="#ff3505" stroke="none" /><path d="M 112.34349029814194 116.9893568818739 l 14.68647215611399 20.214194751178585 a45.98611882287618,45.98611882287618 0 0,0 -0.644402765136499,0.45976426297030526 l -14.336342063128606 -20.464003275993107" fill="#ff3505" stroke="none" /><path d="M 112.04921762599082 117.19931262002967 l 14.336342063128606 20.464003275993107 a45.98611882287618,45.98611882287618 0 0,0 -0.6522213759194146,0.4486038096294 l -13.981963802586309 -20.707747874987604" fill="#ff3505" stroke="none" /><path d="M 111.7513745106137 117.40417183066458 l 12.636898884777505 18.715662529413795 a43.58245419211549,43.58245419211549 0 0,0 -0.6253569590043292,0.41445249275535373 l -12.312867227033212 -18.93041304326047" fill="#ff0000" stroke="none" /><line stroke="#e1ed5e" stroke-width="0.3" x1="143.8653032363475" x2="146.44561519142675" y1="172.8068346515853" y2="177.08958963109032" /><path d="M 144.38136562736335 173.6633856474863 a86.0,86.0 0 0,1 -40.68145358897372,12.25698825130547" fill="none" id="id30" stroke="none" /><text fill="#e1ed5e" style="font-size:6.75px; font-family:Arial;" text-anchor="middle"><textPath startOffset="21.466115282336833" xlink:href="#id30">June</textPath></text><path d="M 110.21172684928248 118.3499491758327 l 21.896851901059218 39.34751932024156 a66.02998334258746,66.02998334258746 0 0,0 -0.997924306934776,0.5441478991229236 l -21.216304782255794 -39.718607871124256" fill="#54ff2b" stroke="none" /><path d="M 109.89434966115114 118.52300852407294 l 29.683048983453418 55.56902557221878 a84.0,84.0 0 0,0 -1.2812363898940176,0.6702823242211329 l -28.722121691032903 -56.07173731538463" fill="#4dd2ff" stroke="none" /><path d="M 109.57404056367764 118.69057910512821 l 16.66325042025975 32.53023611681789 a57.549694614103274,57.549694614103274 0 0,0 -0.8855694727903789,0.4440429177777839 l -16.10082703978661 -32.812246875504975" fill="#e3ff1b" stroke="none" /><path d="M 109.2508944713604 118.85261126421891 l 13.228037965829605 26.95772374554408 a51.02831760133259,51.02831760133259 0 0,0 -0.7918801085492877,0.38015057457861096 l -12.762045189280084 -27.181428596622247" fill="#ff9e0e" stroke="none" /><path d="M 108.2653958097858 119.30500536409082 l 10.86689422917424 25.381174261109333 a48.60966129927818,48.60966129927818 0 0,0 -0.7720337803557592,0.322710182802502 l -10.428388989321018 -25.564469486931806" fill="#ff6d0a" stroke="none" /><path d="M 106.91757812671514 119.82793768551818 l 9.949197001157998 28.517503459492005 a51.203220433092724,51.203220433092724 0 0,0 -0.8346862916826033,0.2831709086807802 l -9.456840976538167 -28.68453735507091" fill="#ffa20f" stroke="none" /><path d="M 106.57524785965236 119.94407469862006 l 10.72265572670683 32.52401298714444 a55.245974458634095,55.245974458634095 0 0,0 -0.9057147512266099,0.2899812618136093 l -10.161219630389278 -32.70376709561775" fill="#fff116" stroke="none" /><path d="M 106.2309692047433 120.05430185196036 l 8.909786773531177 28.67604501350752 a51.02831760133259,51.02831760133259 0 0,0 -0.8410560825729759,0.2534032983909893 l -8.414855716517955 -28.825163681004234" fill="#ff9e0e" stroke="none" /><line stroke="#e1ed5e" stroke-width="0.3" x1="102.19456741930631" x2="102.32365962044197" y1="184.97166512339345" y2="189.96999836594603" /><path d="M 102.22038585953345 185.97133177190398 a86.0,86.0 0 0,1 -42.740103519485714,-10.115201625700543" fill="none" id="id31" stroke="none" /><text fill="#e1ed5e" style="font-size:6.75px; font-family:Arial;" text-anchor="middle"><textPath startOffset="22.20632615414155" xlink:href="#id31">July</textPath></text><line stroke="#e1ed5e" stroke-width="0.3" x1="58.666819895761336" x2="56.23545636021788" y1="174.27360380694188" y2="178.64263932499728" /><path d="M 58.180547188652646 175.14741091055294 a86.0,86.0 0 0,1 -31.652253787137756,-30.449443065178592" fill="none" id="id32" stroke="none" /><text fill="#e1ed5e" style="font-size:6.75px; font-family:Arial;" text-anchor="middle"><textPath startOffset="22.20632615414155" xlink:href="#id32">August</textPath></text><line stroke="#e1ed5e" stroke-width="0.3" x1="26.63291911575756" x2="22.317208475507996" y1="142.92168965132927" y2="145.44649492493687" /><path d="M 25.769776987707644 143.4266507060508 a86.0,86.0 0 0,1 -11.730757126820373,-40.83630448921669" fill="none" id="id33" stroke="none" /><text fill="#e1ed5e" style="font-size:6.75px; font-family:Arial;" text-anchor="middle"><textPath startOffset="21.46611528233685" xlink:href="#id33">September</textPath></text><line stroke="#e1ed5e" stroke-width="0.3" x1="15.007084014347285" x2="10.007500721073583" y1="101.09737516637583" y2="101.16192664675087" /><path d="M 14.007167355692545 101.11028546245083 a86.0,86.0 0 0,1 10.666146001902526,-42.60595125391555" fill="none" id="id34" stroke="none" /><text fill="#e1ed5e" style="font-size:6.75px; font-family:Arial;" text-anchor="middle"><textPath startOffset="22.20632615414155" xlink:href="#id34">October</textPath></text><line stroke="#e1ed5e" stroke-width="0.3" x1="26.266209847984243" x2="21.928928074336255" y1="57.71137044288968" y2="55.22380399835378" /><path d="M 25.398753493254645 57.2138571539825 a86.0,86.0 0 0,1 29.58750427330803,-30.4925239686951" fill="none" id="id35" stroke="none" /><text fill="#e1ed5e" style="font-size:6.75px; font-family:Arial;" text-anchor="middle"><textPath startOffset="21.46611528233685" xlink:href="#id35">November</textPath></text><line stroke="#e1ed5e" stroke-width="0.3" x1="56.76296977257108" x2="54.21961505331056" y1="26.818313649435495" y2="22.513508569990535" /><path d="M 56.25429882871898 25.957352633546506 a86.0,86.0 0 0,1 42.26535254187918,-11.944610805530505" fill="none" id="id36" stroke="none" /><text fill="#e1ed5e" style="font-size:6.75px; font-family:Arial;" text-anchor="middle"><textPath startOffset="22.20632615414155" xlink:href="#id36">December</textPath></text></svg>