<?xml version="1.0" encoding="utf-8" ?>
<svg baseProfile="full" height="300mm" version="1.1" viewBox="0,0,200,300" width="200mm" xmlns="http://www.w3.org/2000/svg" xmlns:ev="http://www.w3.org/2001/xml-events" xmlns:xlink="http://www.w3.org/1999/xlink"><defs /><rect fill="#222222" height="300" width="200" x="0" y="0" /><text fill="#FFFFFF" style="font-size:12px; font-family:Arial; font-weight:bold;" x="10" y="20">my running page</text><text fill="#FFFFFF" style="font-size:4px; font-family:Arial" x="10" y="280">ATHLETE</text><text fill="#FFFFFF" style="font-size:9px; font-family:Arial" x="10" y="290">huang</text><text fill="#FFFFFF" style="font-size:4px; font-family:Arial" x="120" y="280">STATISTICS</text><text fill="#FFFFFF" style="font-size:3px; font-family:Arial" x="120" y="285">Number: 1</text><text fill="#FFFFFF" style="font-size:3px; font-family:Arial" x="120" y="290">Weekly: 1.0</text><text fill="#FFFFFF" style="font-size:3px; font-family:Arial" x="141" y="285">Total: 12.6 km</text><text fill="#FFFFFF" style="font-size:3px; font-family:Arial" x="141" y="290">Avg: 12.6 km</text><text fill="#FFFFFF" style="font-size:3px; font-family:Arial" x="167" y="285">Min: 12.6 km</text><text fill="#FFFFFF" style="font-size:3px; font-family:Arial" x="167" y="290">Max: 12.6 km</text><polyline fill="none" points="87.17648729030043,223.75445836162544 87.21349598513916,223.85106663010083 87.25050467951223,223.9476748703455 87.36153076356277,224.09258717735065 87.43554815324023,224.28580348787364 87.50956554245204,224.52732371690217 87.4725568476133,224.76884376929956 87.36153076356277,225.05866759846685 87.21349598513916,225.34849117341219 86.99144381680526,225.63831449355348 86.73238295386545,225.9764413786761 86.51033078576438,226.21796037032618 86.43631339655258,226.45947918505408 86.47332209115848,226.65269410962355 86.47332209115848,226.89421260613017 86.43631339655258,227.08742727612844 86.47332209115848,227.2806418328837 86.58434817520902,227.4738562767161 86.65836556465365,227.71537417219952 86.65836556465365,227.95689189076074 86.62135687004775,228.2467129198194 86.58434817520902,228.53653369445237 86.54733948060311,228.77805081216502 86.51033078576438,228.97126437886618 86.47332209115848,229.21278117832844 86.47332209115848,229.40599449072033 86.43631339655258,229.69581424695207 86.39930470171385,229.93733051599702 86.39930470171385,230.27545299587655 86.39930470171385,230.61357512915856 86.43631339655258,230.855090726458 86.54733948060311,231.0 86.80640034331009,231.0 87.06546120624989,230.95169691590127 87.28751337435097,230.95169691590127 87.50956554245204,230.95169691590127 87.73161771078594,230.95169691590127 87.99067857326008,230.9033938247012 88.28674813103862,230.855090726458 88.6198263829574,230.855090726458 88.95290463534184,230.855090726458 89.28598288749345,230.855090726458 89.58205244503915,230.855090726458 89.87812200235203,230.855090726458 90.17419156013057,230.80678762108437 90.43325242283754,230.80678762108437 90.65530459093861,230.855090726458 90.80333936982788,230.855090726458 90.98838284332305,230.80678762108437 91.21043501142412,230.855090726458 91.58052195841447,230.80678762108437 91.98761759977788,230.71018138917862 92.32069585192949,230.4686656857666 92.50573932542466,230.22714980560704 92.54274802026339,229.93733051599702 92.54274802026339,229.69581424695207 92.54274802026339,229.45429780107224 92.50573932542466,229.21278117832844 92.43172193598002,228.97126437886618 92.39471324137412,228.6814439862792 92.39471324137412,228.39162333903369 92.39471324137412,228.15010593849001 92.39471324137412,227.90858836114057 92.39471324137412,227.61876703516464 92.43172193598002,227.37724906895892 92.43172193598002,227.08742727612844 92.43172193598002,226.84590892103733 92.46873063081875,226.55608666152693 92.50573932542466,226.31456791749224 92.50573932542466,226.0247451912146 92.54274802026339,225.73492221048218 92.54274802026339,225.44509897509124 92.50573932542466,225.10697154543595 92.46873063081875,224.81714775849832 92.43172193598002,224.52732371690217 92.39471324137412,224.28580348787364 92.43172193598002,224.04428308195202 92.46873063081875,223.80276249945746 92.50573932542466,223.51293756690575 92.50573932542466,223.2714165953803 92.46873063081875,223.02989544699085 92.43172193598002,222.78837412176654 92.43172193598002,222.59515693434514 92.39471324137412,222.45024396956433 92.39471324137412,222.25702658409136 92.39471324137412,222.06380908563733 92.32069585192949,221.77398262560018 92.28368715732358,221.5324603811314 92.20966976787895,221.2426334543852 92.17266107304022,220.9045017180324 92.13565237866715,220.66297883703373 92.09864368382841,220.37315114666126 92.09864368382841,220.1316278767772 92.09864368382841,219.89010443000006 92.06163498922251,219.64858080659178 92.06163498922251,219.31044743667007 92.06163498922251,219.0206185580464 92.02462629461661,218.73078942502616 91.95060890517198,218.29604524790193 91.87659151572734,217.90960549845477 91.83958282112144,217.52316529644304 91.8025741262827,217.23333484792965 91.7655654316768,216.94350414472865 91.7655654316768,216.65367318695644 91.7655654316768,216.41214719435084 91.7655654316768,216.0740105077275 91.69154804223217,215.78417878612527 91.69154804223217,215.49434681012644 91.69154804223217,215.2045145793236 91.69154804223217,214.96298752591247 91.69154804223217,214.76976575586013 91.7285567370709,214.52823838425684 91.7285567370709,214.23840530478628 91.7285567370709,213.99687754415208 91.7285567370709,213.75534960674122 91.7285567370709,213.51382149240817 91.69154804223217,213.22398752198205 91.65453934762627,212.885847567959 91.61753065302037,212.64431881715427 91.61753065302037,212.40278988951468 91.61753065302037,212.16126078515663 91.61753065302037,211.9197315039637 91.61753065302037,211.62989613309037 91.61753065302037,211.34006050773314 91.61753065302037,211.0502246276592 91.65453934762627,210.76038849289762 91.69154804223217,210.51885818620212 91.54351326357573,210.27732770258444 91.54351326357573,210.03579704239382 91.54351326357573,209.7942662051355 91.54351326357573,209.50442896716413 91.58052195841447,209.21459147453425 91.58052195841447,208.87644741139957 91.58052195841447,208.53830300160917 91.58052195841447,208.2484646603989 91.61753065302037,208.00693251457415 91.61753065302037,207.76540019217646 91.58052195841447,207.57217420707457 91.50650456896983,207.3306415663974 91.50650456896983,207.13741532646236 91.50650456896983,206.89588236741838 91.54351326357573,206.70265587299946 91.58052195841447,206.50942926527932 91.58052195841447,206.26789584668586 91.61753065302037,206.12297571043018 91.61753065302037,205.9297487634467 91.65453934762627,205.7365217031038 91.69154804223217,205.54329452954698 91.7285567370709,205.35006724298 91.7285567370709,205.1568398430245 91.69154804223217,205.01191921898862 91.65453934762627,204.81869162103976 91.65453934762627,204.6254639099643 91.65453934762627,204.4805430524575 91.65453934762627,204.2873151433596 91.65453934762627,204.0940871212515 91.58052195841447,203.900858985784 91.58052195841447,203.70763073730632 91.58052195841447,203.5144023754401 91.61753065302037,203.32117390041822 91.61753065302037,203.12794531247346 91.61753065302037,202.98302379704546 91.61753065302037,202.78979501102003 91.61753065302037,202.6448733470752 91.61753065302037,202.49995161956758 91.61753065302037,202.35502982829348 91.65453934762627,202.16180067448295 91.69154804223217,202.016878734692 91.69154804223217,201.8236493827717 91.65453934762627,201.6787272944348 91.58052195841447,201.48549774449202 91.54351326357573,201.29226808127714 91.50650456896983,201.05073084298056 91.50650456896983,200.80919342816924 91.50650456896983,200.6159633687057 91.50650456896983,200.4227331962902 91.54351326357573,200.2295029106317 91.54351326357573,200.0362725117593 91.58052195841447,199.79473435413092 91.58052195841447,199.60150370077463 91.61753065302037,199.4082729340298 91.58052195841447,199.2150420542457 91.58052195841447,199.02181106124772 91.58052195841447,198.82857995509403 91.54351326357573,198.6836565512058 91.58052195841447,198.49042524700053 91.58052195841447,198.34550169453723 91.58052195841447,198.20057807854027 91.54351326357573,198.00734649127116 91.58052195841447,197.86242272658274 91.58052195841447,197.66919094146579 91.54351326357573,197.5242670282023 91.54351326357573,197.37934305137605 91.50650456896983,197.18611098319525 91.50650456896983,197.04118685788126 91.4694958741311,196.89626266871346 91.4694958741311,196.70303031761432 91.4324871795252,196.5581059800461 91.4324871795252,196.3648734309245 91.4324871795252,196.17164076847257 91.4324871795252,195.97840799306869 91.4324871795252,195.7368668645795 91.3954784849193,195.4953255590517 91.35846979008056,195.30209238745738 91.35846979008056,195.15716743443045 91.35846979008056,194.96393406484276 91.35846979008056,194.81900896321167 91.35846979008056,194.67408379801782 91.32146109547466,194.52915856911568 91.35846979008056,194.38423327659257 91.35846979008056,194.19099945420749 91.32146109547466,193.99776551869581 91.32146109547466,193.80453146991204 91.32146109547466,193.61129730776884 91.3954784849193,193.41806303267367 91.4694958741311,193.2248286443646 91.61753065302037,193.128211407864 91.7655654316768,193.0799027789035 91.98761759977788,193.03159414284164 92.17266107304022,193.03159414284164 92.35770454676822,193.03159414284164 92.54274802026339,193.0799027789035 92.72779149352573,193.17652002963587 92.875826272415,193.17652002963587 93.06086974567734,193.17652002963587 93.2089045245666,193.128211407864 93.39394799806178,193.0799027789035 93.54198277671821,193.0799027789035 93.72702625021338,193.03159414284164 93.87506102910265,192.93497684958857 94.0971131969709,192.7900508567982 94.2821566706989,192.69343349299743 94.50420883879997,192.69343349299743 94.68925231229514,192.74174217839027 94.80027839611284,192.7900508567982 95.09634795365855,192.88666819245555 95.20737403794192,192.8383595282212 95.39241751120426,192.7900508567982 95.54045229009353,192.7900508567982 95.68848706874996,192.7900508567982 95.7995131528005,192.74174217839027 95.87353054224513,192.64512480021222 95.91053923685104,192.45188995928038 95.94754793168977,192.21034624878666 95.94754793168977,192.017111153109 95.98455662629567,191.82387594418833 96.05857401550747,191.63064062222838 96.05857401550747,191.38909631033312 96.05857401550747,191.19586073354003 96.05857401550747,191.00262504376587 96.05857401550747,190.8093892406323 96.05857401550747,190.71277129658847 96.02156532090157,190.51953532369225 95.98455662629567,190.37460826980532 95.94754793168977,190.13306303852005 95.94754793168977,189.93982672601123 95.94754793168977,189.74659030040493 95.94754793168977,189.55335376155563 95.94754793168977,189.36011710963794 95.94754793168977,189.16688034444815 95.94754793168977,188.97364346607355 95.94754793168977,188.82871573304874 95.94754793168977,188.63547865662258 95.94754793168977,188.44224146695342 95.94754793168977,188.20069482072722 95.94754793168977,187.95914799763705 95.91053923685104,187.81421981897438 95.94754793168977,187.620982148248 95.94754793168977,187.42774436448235 95.94754793168977,187.23450646738638 95.91053923685104,187.04126845728024 95.94754793168977,186.84803033369826 95.94754793168977,186.70310166693525 95.91053923685104,186.50986334538902 95.87353054224513,186.316624910658 95.83652184763923,186.1233863629168 95.7995131528005,185.97845737761236 95.7995131528005,185.78521863173228 95.7995131528005,185.640289497911 95.7995131528005,185.44705055397935 95.87353054224513,185.30212127158302 96.02156532090157,185.15719192568213 96.13259140495211,185.01226251589833 96.24361748900265,184.86733304258087 96.31763487844728,184.72240350564243 96.39165226789191,184.5774739049375 96.50267835194245,184.48085413587978 96.61370443599299,184.33592442900408 96.76173921464942,184.23930458910763 96.9467826881446,184.14268472106778 97.13182616163976,184.04606482438976 97.3168696349021,184.04606482438976 97.46490441379137,183.99775486558792 97.64994788728654,183.99775486558792 97.83499136078171,183.99775486558792 98.02003483404405,183.94944489959744 98.16806961293332,183.8528249466326 98.24208700237796,183.7078949638526 98.31610439158976,183.56296491756802 98.4271304756403,183.46634485121467 98.61217394913547,183.36972475671791 98.79721742263064,183.32141469878843 98.98226089612581,183.22479456180008 99.16730436938815,183.1764844827121 99.38935653772205,183.1281743964646 99.61140870582312,183.07986430311576 99.8334608739242,183.07986430311576 100.05551304202527,183.1281743964646 100.2035478206817,183.1764844827121 100.38859129440971,183.1764844827121 100.57363476767205,183.1764844827121 100.79568693600595,183.1281743964646 100.98073040926829,183.0315542028402 101.12876518792473,182.9832440954342 101.2397912722081,182.93493398101418 101.38782605086453,182.93493398101418 101.5728695243597,182.88662385940552 101.75791299762204,182.88662385940552 101.94295647111721,182.93493398101418 102.12799994461238,182.9832440954342 102.31304341810755,182.9832440954342 102.49808689160272,182.9832440954342 102.6831303650979,182.9832440954342 102.83116514375433,182.93493398101418 103.0162086172495,182.93493398101418 103.23826078535058,182.88662385940552 103.46031295368448,182.88662385940552 103.71937381615862,182.88662385940552 103.94142598449253,182.88662385940552 104.1264694579877,182.93493398101418 104.27450423664413,182.9832440954342 104.42253901530057,183.07986430311576 104.57057379418984,183.1281743964646 104.71860857261345,183.22479456180008 104.82963465689681,183.32141469878843 104.97766943555325,183.46634485121467 105.16271290928125,183.51465488798567 105.3847650771495,183.51465488798567 105.6068172454834,183.46634485121467 105.8658781084232,183.36972475671791 106.08793027629144,183.32141469878843 106.34699113923125,183.27310463390313 106.56904330733232,183.27310463390313 106.7910954754334,183.27310463390313 107.0131476437673,183.22479456180008 107.19819111702964,183.22479456180008 107.42024328513071,183.1764844827121 107.60528675862588,183.1281743964646 107.79033023212105,183.1281743964646 107.97537370561622,183.1764844827121 108.08639978966676,183.1764844827121 108.27144326316193,183.1764844827121 108.45648673642427,183.1764844827121 108.64153020991944,183.1281743964646 108.82657368341461,183.1281743964646 109.04862585174851,183.07986430311576 109.19666063017212,182.9832440954342 109.30768671422265,182.83831373078283 109.38170410366729,182.64507314545335 109.41871279850602,182.50014263216872 109.49273018771783,182.30690184875857 109.49273018771783,182.16197118684067 109.52973888255656,182.06535071021062 109.6407649666071,182.01704046136 109.78879974526353,182.01704046136 110.0108519133646,182.06535071021062 110.38093886035495,182.06535071021062 110.56598233361728,182.01704046136 110.71401711250655,181.92041994226747 110.71401711250655,181.77548911058693 110.67700841790065,181.58224790275563 110.56598233361728,181.43731692252913 110.52897363924421,181.29238587868167 110.45495624956675,181.3890065816522 110.60299102845602,181.24407551661716 110.67700841790065,181.24407551661716 110.63999972306192,181.3890065816522 110.67700841790065,181.63055821531452 110.67700841790065,181.77548911058693 110.63999972306192,181.92041994226747 110.45495624956675,182.01704046136 110.26991277630441,182.06535071021062 110.08486930280924,182.113660951989 109.86281713447534,182.113660951989 109.71478235605173,182.06535071021062 109.52973888255656,182.01704046136 109.38170410366729,182.01704046136 109.19666063017212,182.06535071021062 108.97460846207105,182.06535071021062 108.75255629396997,182.113660951989 108.60452151531354,182.113660951989 108.45648673642427,182.06535071021062 108.30845195776783,182.06535071021062 108.12340848427266,182.06535071021062 107.90135631617159,182.06535071021062 107.67930414807051,182.06535071021062 107.3462258959189,182.113660951989 106.97613894892856,182.01704046136 106.86511286487803,181.87210967222927 106.7910954754334,181.6788685209176 106.75408678059466,181.3890065816522 106.75408678059466,181.0991443877574 106.7910954754334,180.80928193914588 106.7910954754334,180.61604016536148 106.7910954754334,180.3261772922706 106.75408678059466,180.08462470353697 106.75408678059466,179.79476136347512 106.75408678059466,179.5532083856815 106.7910954754334,179.3116552309657 106.75408678059466,179.07010189941502 106.75408678059466,178.82854839082574 106.71707808622159,178.53868394703022 106.71707808622159,178.2488192487799 106.68006939138286,178.00726513905101 106.68006939138286,177.71739997365512 106.68006939138286,177.4758454746334 106.68006939138286,177.18597984241205 106.64306069677696,176.9444249542139 106.64306069677696,176.65455885510892 106.60605200193822,176.3646925012872 106.53203461249359,176.07482589266147 106.49502591812052,175.73664786070003 106.49502591812052,175.49509191137622 106.49502591812052,175.2052245386294 106.49502591812052,174.91535691125318 106.49502591812052,174.6738003603823 106.49502591812052,174.43224363279296 106.45801722328179,174.14237532613333 106.45801722328179,173.90081820936757 106.42100852867588,173.6109494358534 106.42100852867588,173.32108040747698 106.38399983383715,173.03121112444205 106.30998244462535,172.7413415866613 106.30998244462535,172.4514717941929 106.30998244462535,172.2099134393211 106.30998244462535,171.968354907498 106.30998244462535,171.6784844357462 106.30998244462535,171.436925514834 106.30998244462535,171.1953664169996 106.34699113923125,170.90549526602263 106.34699113923125,170.6639357790118 106.34699113923125,170.3740641612094 106.30998244462535,170.13250428493484 106.30998244462535,169.84263220001594 106.27297374978662,169.6010719347396 106.27297374978662,169.35951149257016 106.27297374978662,169.06963872848428 106.27297374978662,168.77976570956525 106.30998244462535,168.53820466587786 106.30998244462535,168.2966434453847 106.30998244462535,168.05508204796934 106.30998244462535,167.76520813754178 106.30998244462535,167.475333972543 106.27297374978662,167.185459552682 106.23596505518071,166.94389734158176 106.19895636034198,166.7023349534138 106.19895636034198,166.41245985441492 106.19895636034198,166.17089707724517 106.16194766573608,165.8810215111007 106.12493897113018,165.63945834475453 106.12493897113018,165.3495823116391 106.12493897113018,165.1080187560001 106.19895636034198,164.86645502372994 106.34699113923125,164.5765783112729 106.30998244462535,164.3350141897099 106.23596505518071,164.0451370102237 106.16194766573608,163.70694664563052 106.08793027629144,163.3687559342943 106.05092158168554,163.03056487630238 106.01391288707964,162.7406865505036 106.01391288707964,162.49912108434364 106.01391288707964,162.2092422915157 106.01391288707964,161.91936324414564 106.01391288707964,161.62948394188425 105.97690419247374,161.33960438499344 105.97690419247374,161.09803789289435 105.939895497635,160.80815786894527 105.90288680279627,160.56659098752425 105.8658781084232,160.2767104965751 105.82886941358447,160.0351432261523 105.82886941358447,159.74526226805756 105.82886941358447,159.45538105530431 105.8658781084232,159.16549958771793 105.8658781084232,158.87561786547303 105.8658781084232,158.53742220072309 105.8658781084232,158.29585365657113 105.8658781084232,158.00597116994322 105.82886941358447,157.76440223655663 105.82886941358447,157.47451928295777 105.79186071897857,157.23294996033655 105.79186071897857,156.89475261158077 105.79186071897857,156.60486889380263 105.79186071897857,156.31498492113315 105.79186071897857,156.02510069365962 105.75485202413984,155.78353030967992 105.79186071897857,155.5419597485743 105.82886941358447,155.30038901069202 105.82886941358447,155.05881809591665 105.82886941358447,154.81724700419 105.79186071897857,154.57567573545384 105.75485202413984,154.28578997962177 105.75485202413984,154.0925326674478 105.75485202413984,153.85096086809062 105.79186071897857,153.60938889163663 105.79186071897857,153.3678167385806 105.79186071897857,153.07792992109898 105.75485202413984,152.7397283121245 105.68083463492803,152.44984094263054 105.6438259400893,152.15995331850718 105.6068172454834,151.87006543963798 105.6068172454834,151.58017730570282 105.6068172454834,151.29028891737107 105.5698085508775,151.00040027408977 105.5698085508775,150.75882621010533 105.5698085508775,150.5172519692278 105.53279985603876,150.22736264654668 105.49579116120003,149.93747306926525 105.49579116120003,149.64758323700516 105.53279985603876,149.4060081821808 105.5698085508775,149.11611788300797 105.5698085508775,148.8745424390363 105.53279985603876,148.63296681811335 105.49579116120003,148.3913910201809 105.45878246682696,148.14981504547177 105.42177377198823,147.8599236421869 105.3847650771495,147.61834727809764 105.3847650771495,147.3767707372026 105.3847650771495,147.08687865445972 105.3847650771495,146.7969863169419 105.42177377198823,146.50709372470737 105.42177377198823,146.2172008776397 105.3477563825436,145.9273077759426 105.31074768793769,145.68572999633034 105.31074768793769,145.39583642751677 105.31074768793769,145.15425825866987 105.3477563825436,144.9126799130463 105.31074768793769,144.71941710915416 105.31074768793769,144.47783844501828 105.31074768793769,144.18794381443877 105.31074768793769,143.89804892908433 105.31074768793769,143.55983790769824 105.27373899309896,143.26994247030234 105.27373899309896,142.9800467780733 105.27373899309896,142.73846684006276 105.27373899309896,142.44857068080455 105.27373899309896,142.20699035355938 105.23673029872589,141.9654098491883 105.19972160388716,141.67551301044296 105.16271290928125,141.3856159169809 105.12570421444252,141.0957185686857 105.12570421444252,140.8541372505133 105.16271290928125,140.56423943515983 105.16271290928125,140.3226577275782 105.16271290928125,140.03275944499183 105.16271290928125,139.79117734826286 105.19972160388716,139.50127859853092 105.23673029872589,139.25969611265464 105.23673029872589,138.9697968957771 105.23673029872589,138.72821402043337 105.19972160388716,138.43831433641026 105.16271290928125,138.1967310718319 105.12570421444252,137.9068309206923 105.12570421444252,137.6169305148942 105.08869551983662,137.32702985429205 105.05168682499789,137.08544577567955 105.01467813039199,136.7955446477863 104.97766943555325,136.50564326505992 104.97766943555325,136.26405858492944 104.94066074094735,135.9741567352321 104.94066074094735,135.6842546305852 104.90365204634145,135.44266934882035 104.86664335150272,135.15276677711518 104.82963465689681,134.91118110597017 104.79262596229091,134.621278067003 104.82963465689681,134.37969200662337 104.82963465689681,134.08978850051062 104.82963465689681,133.84820205086726 104.86664335150272,133.55829807766713 104.90365204634145,133.3167112385854 104.97766943555325,133.0268067981524 105.05168682499789,132.78521956992336 105.05168682499789,132.49531466243207 105.01467813039199,132.20540949999122 104.97766943555325,131.91550408292096 104.94066074094735,131.67391604051227 104.94066074094735,131.3840101561509 104.90365204634145,131.0941040169273 104.90365204634145,130.85251537302975 104.90365204634145,130.56260876668966 104.86664335150272,130.27270190548734 104.86664335150272,130.0311126598972 104.86664335150272,129.74120533146197 104.82963465689681,129.40297979302704 104.79262596229091,129.11307191249216 104.75561726745218,128.82316377715324 104.71860857261345,128.5332553870976 104.68159987824038,128.2433467421215 104.64459118340164,128.0017560100532 104.60758248902857,127.76016510094632 104.4965564047452,127.51857401491725 104.34852162585594,127.37361927825259 104.1264694579877,127.27698275176226 103.86740859504789,127.22866447799606 103.64535642694682,127.27698275176226 103.60834773210809,127.27698275176226 103.68236512155272,127.27698275176226 103.86740859504789,127.22866447799606 104.01544337370433,127.22866447799606 104.1634781525936,127.18034619718674 104.27450423664413,127.18034619718674 104.42253901530057,127.18034619718674 104.57057379418984,127.18034619718674 104.75561726745218,127.13202790924697 104.90365204634145,127.18034619718674 105.08869551983662,127.18034619718674 105.23673029872589,127.18034619718674 105.3847650771495,127.13202790924697 105.53279985603876,127.13202790924697 105.68083463492803,127.13202790924697 105.82886941358447,127.13202790924697 106.01391288707964,127.08370961408946 106.16194766573608,127.03539131183061 106.34699113923125,127.03539131183061 106.49502591812052,126.98707300267415 106.64306069677696,126.98707300267415 106.7910954754334,126.93875468632905 106.97613894892856,126.93875468632905 107.19819111702964,126.89043636294082 107.45725197996944,126.89043636294082 107.71631284267642,126.89043636294082 107.90135631617159,126.89043636294082 108.08639978966676,126.89043636294082 108.2344345683232,126.89043636294082 108.34546065260656,126.89043636294082 108.493495431263,126.89043636294082 108.64153020991944,126.89043636294082 108.78956498857588,126.89043636294082 108.97460846207105,126.89043636294082 109.12264324096031,126.89043636294082 109.34469540906139,126.84211803259677 109.52973888255656,126.84211803259677 109.71478235605173,126.89043636294082 109.89982582931407,126.84211803259677 110.08486930280924,126.79379969491856 110.23290408146568,126.69716299854917 110.30692147114314,126.55220790102612 110.34393016551621,126.40725273962016 110.41794755496085,126.26229751470964 110.49196494440548,126.06902378221275 110.52897363924421,125.92406840852345 110.52897363924421,125.77911297127139 110.52897363924421,125.63415747010731 110.56598233361728,125.48920190535136 110.56598233361728,125.34424627674161 110.60299102845602,125.15097200640594 110.67700841790065,124.95769762271084 110.78803450195119,124.76442312574363 110.89906058600172,124.57114851562073 111.04709536465816,124.37787379216752 111.1951301433146,124.28123638787656 111.3801736170426,124.18459895532578 111.52820839569904,124.08796149445698 111.63923447974958,123.99132400524104 111.71325186896138,123.74973015845171 111.75026056380011,123.45981730878702 111.75026056380011,123.16990420414368 111.75026056380011,122.8799908447836 111.71325186896138,122.68671513022855 111.71325186896138,122.44512032778584 111.71325186896138,122.30016336136032 111.71325186896138,122.10688730701804 111.78726925863884,121.96193019210477 111.82427795324475,121.81697301319218 111.86128664785065,121.67201577074593 111.86128664785065,121.4787393482693 111.86128664785065,121.28546281257877 111.86128664785065,121.04386698370217 111.71325186896138,120.27075914191664 111.56521709053777,119.44933007436339 111.45419100648724,118.62789896072354 111.49119970109314,118.48294031675323 111.52820839569904,118.28966202522861 111.52820839569904,118.09638362066471 111.52820839569904,117.9031051027996 111.49119970109314,117.75814614008414 111.49119970109314,117.61318711351487 111.45419100648724,117.46822802338284 111.45419100648724,117.3232688694552 111.4171823116485,117.1783096518775 111.45419100648724,117.12998989861808 111.52820839569904,117.1783096518775 111.63923447974958,117.3232688694552 111.75026056380011,117.46822802338284 111.82427795324475,117.56486742396373 111.93530403729528,117.66150679602288 112.08333881595172,117.75814614008414 112.30539098428562,117.70982647163328 112.5274431523867,117.66150679602288 112.8235127099324,117.51654772728216 113.11958226724528,117.4199083125859 113.41565182479098,117.27494913735427 113.63770399289206,117.1783096518775 113.89676485583186,117.0333503705915 114.19283441337757,116.88839102568454 114.48890397092327,116.69511179966503 114.78497352823615,116.50183246069355 115.04403439117596,116.40519274864346 115.30309525411576,116.26023312757025 115.56215611682273,116.16359334468143 115.7842082849238,116.066953533591 116.04326914763078,115.97031369412434 116.30233001057059,115.92199376382632 116.56139087327756,115.82535388186807 116.82045173621736,115.72871397141716 117.07951259915717,115.63207403302658 117.33857346186414,115.58375405316474 117.63464301940985,115.58375405316474 117.89370388234966,115.63207403302658 118.1157560502179,115.6803940058162 118.3748169131577,115.72871397141716 118.59686908125877,115.72871397141716 118.85592994419858,115.77703393020784 119.18900819635019,115.82535388186807 119.4850777538959,115.87367382628145 119.89217339549214,115.92199376382632 120.26226034224965,115.97031369412434 120.63234728923999,115.97031369412434 120.89140815217979,115.97031369412434 121.15046901488677,115.97031369412434 121.40952987782657,115.97031369412434 121.66859074053355,115.92199376382632 121.96466029807925,115.92199376382632 122.22372116101906,115.87367382628145 122.51979071833193,115.87367382628145 122.81586027587764,115.87367382628145 123.11192983342335,115.92199376382632 123.40799939096905,116.01863361732103 123.66706025367603,116.066953533591 123.88911242200993,116.066953533591 124.111164590111,116.16359334468143 124.37022545281798,116.26023312757025 124.62928631575778,116.3568728819373 124.92535587307066,116.45351260824827 125.18441673601046,116.50183246069355 125.48048629355617,116.5984721443383 125.73954715626314,116.69511179966503 125.96159932459705,116.88839102568454 126.10963410325348,117.0333503705915 126.25766888190992,117.2266293982102 126.40570366079919,117.46822802338284 126.479721050011,117.75814614008414 126.51672974484973,118.04806400189409 126.55373843968846,118.33798160875449 126.55373843968846,118.57957941977656 126.51672974484973,118.86949655946228 126.44271235540509,119.11109398119152 126.29467757651582,119.35269122608588 126.14664279785939,119.54596889426466 125.96159932459705,119.69092707132222 125.77655585110188,119.83588518438046 125.51749498816207,119.98084323402145 125.29544282029383,120.07748189830454 125.07339065195993,120.22243984157103 124.92535587307066,120.46403627219843 124.85133848362602,120.75395175538142 124.85133848362602,121.09218616361613 124.85133848362602,121.43042022496229 124.81432978902012,121.72033485866268 124.85133848362602,122.01024923747173 124.96236456790939,122.25184435842675 125.11039934656583,122.49343930240138 125.22142543061636,122.68671513022855 125.29544282029383,122.8799908447836 125.40646890411153,123.12158532868489 125.55450368276797,123.36317963557667 125.77655585110188,123.55645495385397 126.07262540841475,123.65309257028275 126.36869496596046,123.7014113679179 126.62775582890026,123.7014113679179 126.88681669160724,123.65309257028275 127.14587755454704,123.60477376560448 127.40493841725402,123.50813613468199 127.66399928019382,123.41149847576162 127.9230601429008,123.2665419341065 128.14511231100187,123.12158532868489 128.40417317394167,122.9766286596423 128.66323403688148,122.8799908447836 128.92229489958845,122.7833530016942 129.18135576252826,122.68671513022855 129.44041662523523,122.5900772306195 129.6624687933363,122.49343930240138 129.88452096143737,122.39680134601076 130.14358182437718,122.30016336136032 130.43965138192289,122.20352534833364 130.69871224462986,122.05856827576645 130.92076441273093,121.96193019210477 131.17982527567074,121.86529207986314 131.43888613861054,121.76865393939079 131.73495569592342,121.72033485866268 132.06803394807503,121.67201577074593 132.36410350562073,121.67201577074593 132.62316436856054,121.67201577074593 132.8822252312675,121.62369667584426 133.14128609420732,121.52705846447498 133.3633382623084,121.33378195721889 133.51137304119766,121.09218616361613 133.6594078198541,120.8505901930912 133.80744259851053,120.60899404555676 133.9554773773998,120.41571700028726 134.10351215605624,120.22243984157103 134.3255643241573,119.98084323402145 134.47359910304658,119.64260768602253 134.65864257654175,119.30437179116416 134.73265996575356,119.06277451105416 134.8436860498041,118.86949655946228 134.91770343924873,118.6762184946565 135.06573821790516,118.48294031675323 135.25078169140033,118.24134243471781 135.3988164702896,118.04806400189409 135.58385994355194,117.80646580137545 135.7318947224412,117.56486742396373 135.91693819593638,117.37158859454212 136.02796427998692,117.08167013822822 136.13899036380462,116.8400712297589 136.17599905864336,116.5501523061248 136.250016448088,116.30855300830444 136.3240338372998,116.01863361732103 136.39805122674443,115.72871397141716 136.50907731079496,115.48711407216615 136.65711208968423,115.24551399567281 136.8051468685735,114.9555936702236 136.8791642577853,114.61735296840197 136.8791642577853,114.27911191975 136.9161729523912,113.98919074475998 136.9531816469971,113.7475895708194 136.99019034183584,113.45766792853829 136.99019034183584,113.21606636545039 136.99019034183584,112.92614425593638 137.02719903644174,112.63622189161833 137.02719903644174,112.34629927240894 137.02719903644174,112.05637639825 137.02719903644174,111.81477380834986 137.02719903644174,111.52485046710353 136.99019034183584,111.23492687084945 136.9161729523912,110.99332367928582 136.9161729523912,110.70339961585705 136.8791642577853,110.36515455282643 136.9161729523912,110.07522993715247 136.9161729523912,109.73698423002497 136.9161729523912,109.3987381758343 136.9161729523912,109.06049177481327 136.9161729523912,108.72224502690369 136.9531816469971,108.43231896695215 136.9531816469971,108.1907137222297 136.9161729523912,107.94910830038134 136.9531816469971,107.707502701669 136.9531816469971,107.46589692591806 136.99019034183584,107.22429097321583 137.02719903644174,106.93436359622865 137.02719903644174,106.64443596429192 136.99019034183584,106.3061867383949 136.99019034183584,106.01625855424209 136.99019034183584,105.72633011519792 136.99019034183584,105.43640142143704 137.02719903644174,105.09815095632803 137.02719903644174,104.80822171026375 137.06420773128048,104.51829220919171 137.02719903644174,104.27668409695616 137.02719903644174,104.03507580774021 137.06420773128048,103.74514562709373 137.10121642588638,103.45521519143949 137.1382251207251,103.21360630026902 137.175233815331,102.92367539744009 137.2122425099369,102.6337442395452 137.2122425099369,102.34381282693357 137.2122425099369,102.05388115922688 137.175233815331,101.76394923668704 137.175233815331,101.5223391065374 137.2122425099369,101.23240671664826 137.28625989938155,100.99079619691474 137.32326859398745,100.65254117216682 137.32326859398745,100.36260801772005 137.36027728859335,100.0726746081782 137.36027728859335,99.78274094394874 137.39728598319925,99.4928070246242 137.36027728859335,99.25119523055037 137.36027728859335,98.96126084393472 137.39728598319925,98.67132620239863 137.39728598319925,98.38139130591298 137.36027728859335,98.0431336046313 137.28625989938155,97.70487555631553 137.2122425099369,97.41493981025997 137.175233815331,97.12500380925485 137.10121642588638,96.8350675534457 137.02719903644174,96.49680826588883 136.8791642577853,96.2551942768041 136.73112947889604,95.96525725608808 136.5460860056337,95.77196576746064 136.39805122674443,95.5303512471437 136.21300775324926,95.3370595035667 136.06497297459282,95.14376764660119 135.87992950109765,94.90215266615269 135.65787733299658,94.66053750854917 135.4358251648955,94.41892217416898 135.25078169140033,94.17730666248826 135.02872952329926,93.98401412571548 134.8436860498041,93.790721475787 134.65864257654175,93.59742871235358 134.47359910304658,93.40413583582267 134.28855562931858,93.21084284587414 134.10351215605624,92.96922644917504 133.9554773773998,92.77593320430606 133.80744259851053,92.53431648894912 133.69641651446,92.34102298918879 133.62239912501536,92.099405955174 133.54838173557073,91.80946528064669 133.47436434635893,91.47120083819027 133.40034695714712,91.18125961138867 133.3633382623084,90.93964172754204 133.3263295677025,90.64970003327471 133.3633382623084,90.40808176001883 133.40034695714712,90.1181395984604 133.47436434635893,89.87652093579527 133.54838173557073,89.58657830688753 133.62239912501536,89.29663542297203 133.69641651446,89.05501615817775 133.80744259851053,88.76507280700025 133.9554773773998,88.47512920072768 134.14052085066214,88.2335093341826 134.28855562931858,88.04021331356489 134.47359910304658,87.84691717935493 134.65864257654175,87.60529685253277 134.80667735496536,87.36367634867202 134.99172082869336,87.17037981800968 135.17676430218853,86.92875899540377 135.3988164702896,86.7837864169851 135.69488602760248,86.63881377474172 135.95394689054228,86.49384106867365 136.21300775324926,86.3488682989846 136.47206861618906,86.15557117346907 136.73112947889604,85.96227393471054 136.99019034183584,85.76897658262169 137.2122425099369,85.57567911714432 137.39728598319925,85.43070594381425 137.54532076208852,85.18908384654787 137.7303642355837,84.99578604119597 137.95241640368477,84.70583912084112 138.13745987717994,84.46421649237163 138.2854946560692,84.17426910466747 138.3965207398869,83.93264608658501 138.50754682417028,83.69102289166767 138.5815642136149,83.44939951971173 138.65558160282671,83.20777597065899 138.69259029743262,82.917827478057 138.72959899203852,82.62787873047637 138.76660768687725,82.33792972794618 138.76660768687725,82.04798047061195 138.72959899203852,81.80635589471785 138.69259029743262,81.51640616977238 138.61857290798798,81.22645618996467 138.54455551877618,80.9365059552947 138.43352943472564,80.64655546567519 138.3225033506751,80.3566047209606 138.21147726662457,80.11497890556348 138.13745987717994,79.87335291321506 138.0634424877353,79.63172674385714 137.95241640368477,79.39010039740242 137.80438162502833,79.14847387382179 137.61933815153316,78.85852181183873 137.434294678038,78.66522029569023 137.24925120477565,78.42359324096469 137.02719903644174,78.18196600920055 136.84215556294657,77.98866409630864 136.6201033948455,77.79536207017372 136.39805122674443,77.60205993065028 136.21300775324926,77.40875767779653 136.06497297459282,77.21545531164156 135.95394689054228,77.0221528322727 135.87992950109765,76.87717589823296 135.80591211188585,76.73219890060136 135.7689034170471,76.53889613776118 135.80591211188585,76.44224471389316 135.87992950109765,76.29726752502029 135.95394689054228,76.15229027238092 135.95394689054228,76.00731295585865 135.95394689054228,75.81400976821897 135.91693819593638,75.66903230306343 135.91693819593638,75.47572891716845 135.91693819593638,75.28242541768122 135.91693819593638,75.08912180515472 135.87992950109765,74.89581807912327 135.84292080649175,74.7508402101812 135.7689034170471,74.50921028733137 135.7689034170471,74.31590622127987 135.7318947224412,74.17092809747555 135.62086863839068,74.07427597948117 135.50984255434014,74.07427597948117 135.32479908084497,74.12260204204358 135.1397556073498,74.2192541458935 134.95471213385463,74.2192541458935 134.65864257654175,74.17092809747555 134.36257301899604,74.07427597948117 134.0665034612175,73.92929774953518 133.80744259851053,73.73599334360915 133.51137304119766,73.54268882444012 133.21530348341912,73.39771036061575 132.8452165366616,73.2527318331122 132.5491469791159,73.10775324178394 132.2160687269643,73.01110081214574 131.9570078640245,72.91444835433504 131.69794700131752,72.86612211470492 131.43888613861054,72.76946961431531 131.17982527567074,72.6244908105873 130.88375571812503,72.47951194300549 130.62469485518523,72.38285932937288 130.32862529787235,72.2378803556785 130.03255574032664,72.09290131818852 129.77349487738684,71.99624859108008 129.51443401467986,71.8995958356536 129.2923818465788,71.80294305187999 129.033320983639,71.75461664950126 128.81126881553791,71.65796382326516 128.55220795283094,71.51298453088384 128.33015578472987,71.41633163380902 128.10810361639597,71.27135223514051 127.84904275368899,71.1263727725891 127.58998189074919,71.02971976221306 127.33092102780938,70.93306672366452 127.07186016510241,70.83641365650692 126.8127993021626,70.73976056123502 126.55373843968846,70.64310743747046 126.29467757651582,70.54645428547519 126.03561671404168,70.40147450435325 125.77655585110188,70.30482128149015 125.48048629355617,70.1598413939646 125.22142543061636,69.96653477838845 124.92535587307066,69.82155474214233 124.66629501036368,69.62824792810716 124.40723414742388,69.48326774325687 124.1481732847169,69.38661425127066 123.92612111661583,69.24163396004587 123.66706025367603,69.19330718219862 123.40799939096905,69.09665360534564 123.14893852802925,69.04832680610707 122.85286897071637,69.04832680610707 122.55679941293783,69.0 122.26072985562496,69.04832680610707 121.92765160324052,69.09665360534564 121.63158204569481,69.19330718219862 121.37252118298784,69.24163396004587 121.07645162544213,69.338287494611 120.81739076273516,69.43494100088719 120.52132120518945,69.48326774325687 120.26226034224965,69.48326774325687 119.96619078470394,69.43494100088719 119.67012122739106,69.38661425127066 119.37405166984536,69.2899607309082 119.11499080690555,69.24163396004587 118.89293863880448,69.2899607309082 118.70789516530931,69.2899607309082 118.52285169204697,69.2899607309082 118.3748169131577,69.2899607309082 118.18977343966253,69.24163396004587 118.00472996640019,69.24163396004587 117.78267779829912,69.19330718219862 117.56062562996522,69.19330718219862 117.30156476702541,69.19330718219862 117.07951259915717,69.19330718219862 116.85746043082327,69.19330718219862 116.67241695756093,69.14498039727914 116.48737348406576,69.14498039727914 116.30233001057059,69.09665360534564 116.15429523168132,69.14498039727914 116.00626045325771,69.14498039727914 115.85822567436844,69.14498039727914 115.67318220087327,69.14498039727914 115.4881387273781,69.19330718219862 115.30309525411576,69.24163396004587 115.19206917006522,69.2899607309082 115.00702569633722,69.338287494611 114.82198222307488,69.38661425127066 114.63693874957971,69.43494100088719 114.48890397092327,69.48326774325687 114.340869192034,69.62824792810716 114.11881702393293,69.77322804930736 113.93377355043776,69.86988142793416 113.74873007694259,69.96653477838845 113.60069529828615,70.01486144290539 113.41565182479098,70.06318810029188 113.26761704613455,70.06318810029188 113.04556487803347,70.1598413939646 112.8605214045383,70.25649465934839 112.71248662588187,70.30482128149015 112.5274431523867,70.35314789635595 112.30539098428562,70.35314789635595 112.08333881595172,70.40147450435325 111.86128664785065,70.4981276987528 111.67624317435548,70.54645428547519 111.49119970109314,70.59478086500894 111.34316492220387,70.59478086500894 111.1211127541028,70.59478086500894 110.93606928084046,70.59478086500894 110.75102580711246,70.64310743747046 110.56598233361728,70.64310743747046 110.38093886035495,70.69143400297617 110.19589538685977,70.69143400297617 110.04786060820334,70.73976056123502 109.89982582931407,70.73976056123502 109.71478235605173,70.73976056123502 109.52973888255656,70.73976056123502 109.38170410366729,70.73976056123502 109.23366932501085,70.69143400297617 109.04862585174851,70.69143400297617 108.82657368341461,70.73976056123502 108.64153020991944,70.73976056123502 108.41947804181837,70.83641365650692 108.2344345683232,70.88474019354908 107.97537370561622,70.98139324653312 107.75332153751515,70.98139324653312 107.53126936918125,70.98139324653312 107.3462258959189,70.98139324653312 107.16118242242374,71.02971976221306 107.0131476437673,71.02971976221306 106.86511286487803,71.0780462710245 106.68006939138286,71.02971976221306 106.45801722328179,70.93306672366452 106.23596505518071,70.88474019354908 105.97690419247374,70.88474019354908 105.79186071897857,70.88474019354908 105.53279985603876,70.93306672366452 105.31074768793769,70.88474019354908 105.08869551983662,70.88474019354908 104.90365204634145,70.88474019354908 104.68159987824038,70.83641365650692 104.4595477101393,70.78808711242164 104.27450423664413,70.78808711242164 104.1264694579877,70.73976056123502 103.97843467909843,70.78808711242164 103.83039990044199,70.78808711242164 103.64535642694682,70.78808711242164 103.49732164805755,70.78808711242164 103.31227817479521,70.78808711242164 103.16424339590594,70.78808711242164 102.97919992241077,70.73976056123502 102.7571477543097,70.73976056123502 102.53509558620863,70.69143400297617 102.27603472350165,70.64310743747046 102.09099125000648,70.59478086500894 101.86893908190541,70.59478086500894 101.68389560841024,70.59478086500894 101.49885213491507,70.59478086500894 101.35081735625863,70.59478086500894 101.16577388253063,70.54645428547519 100.94372171442956,70.54645428547519 100.72166954656132,70.44980110507458 100.49961737822741,70.40147450435325 100.31457390496507,70.35314789635595 100.16653912630863,70.30482128149015 100.01850434741937,70.25649465934839 99.8334608739242,70.1598413939646 99.68542609503493,70.11151475075167 99.50038262177259,70.06318810029188 99.31533914827742,70.06318810029188 99.16730436938815,70.06318810029188 98.94525220128708,70.06318810029188 98.7602087277919,70.01486144290539 98.57516525429673,70.01486144290539 98.39012178126723,69.96653477838845 98.20507830753922,69.86988142793416 98.02003483404405,69.77322804930736 97.87200005538762,69.72490134925465 97.76097397156991,69.67657464230433 97.61293919268064,69.62824792810716 97.39088702434674,69.57992120698327 97.16883485624567,69.53159447858343 96.9467826881446,69.43494100088719 96.65071313059889,69.38661425127066 96.24361748900265,69.43494100088719 95.83652184763923,69.48326774325687 95.46643490041606,69.48326774325687 95.17036534310319,69.48326774325687 94.87429578555748,69.53159447858343 94.5782262282446,69.57992120698327 94.31916536507197,69.62824792810716 94.0971131969709,69.72490134925465 93.87506102910265,69.72490134925465 93.65300886076875,69.77322804930736 93.39394799806178,69.82155474214233 93.1718958299607,69.86988142793416 92.91283496725373,69.91820810668287 92.69078279891983,70.01486144290539 92.43172193598002,70.11151475075167 92.17266107304022,70.2081680301635 91.91360021033324,70.30482128149015 91.69154804223217,70.40147450435325 91.3954784849193,70.54645428547519 91.13641762197949,70.69143400297617 90.80333936982788,70.83641365650692 90.61829589633271,70.98139324653312 90.47026111767627,71.1263727725891 90.2852176441811,71.36800517470692 90.06316547608003,71.60963739961153 89.80410461314023,71.85126944747753 89.58205244503915,72.09290131818852 89.39700897154398,72.2378803556785 89.24897419265471,72.38285932937288 89.1009394142311,72.57616452855291 88.98991333018057,72.76946961431531 88.8788872458972,72.96277458683471 88.76786116184667,73.15607944599469 88.6198263829574,73.44603652221849 88.43478290969506,73.73599334360915 88.24973943619989,74.02594990993384 88.13871335214935,74.2675801871228 87.99067857326008,74.46088428140501 87.80563509999774,74.60586227770546 87.62059162650257,74.79916617376148 87.43554815324023,74.94414402122493 87.21349598513916,75.13744771882193 86.95443512219936,75.28242541768122 86.73238295386545,75.47572891716845 86.54733948060311,75.62070646721986 86.36229600710794,75.81400976821897 86.21426122821867,75.95898716963711 86.02921775495633,76.10396450737608 85.84417428146116,76.24894178108661 85.62212211336009,76.39391899143811 85.40006994525902,76.58722183908685 85.21502647176385,76.73219890060136 84.95596560882404,76.92550155002391 84.69690474588424,77.07047846278874 84.43784388317727,77.21545531164156 84.17878302023746,77.36043209693162 83.95673085236922,77.50540881842608 83.69766998942941,77.65038547609583 83.43860912648961,77.74703654600307 83.14253956917673,77.89201309747295 82.88347870623693,77.98866409630864 82.62441784352995,78.03698958517634 82.40236567519605,78.08531506700092 82.18031350709498,78.13364054163685 81.9582613389939,78.18196600920055 81.69920047628693,78.27861692314036 81.40313091874123,78.37526780890767 81.10706136119552,78.42359324096469 80.81099180388264,78.52024408397847 80.55193094094284,78.61689489884884 80.29287007800303,78.66522029569023 80.07081790990196,78.71354568543029 79.84876574180089,78.7618710680108 79.62671357346699,78.81019644346088 79.36765271076001,78.85852181183873 79.0715831532143,78.90684717326076 78.77551359590143,78.95517252752325 78.47944403835572,78.95517252752325 78.25739187025465,78.95517252752325 77.99833100731485,78.95517252752325 77.77627883921377,79.00349787477171 77.51721797627397,79.10014854799374 77.258157113567,79.14847387382179 76.96208755602129,79.24512450449402 76.70302669308148,79.34177510699374 76.44396583037451,79.43842568079708 76.1849049674347,79.5834014886932 75.96285279933363,79.68005199191975 75.74080063123256,79.82502769347047 75.51874846313149,79.97000333145843 75.29669629503042,80.16330408287467 75.00062673748471,80.30827957214206 74.74156587477773,80.45325499741011 74.51951370667666,80.59823035917361 74.29746153834276,80.74320565717062 74.07540937024169,80.88818089131382 73.85335720214061,80.98483101208694 73.63130503380671,81.12980614014668 73.40925286570564,81.22645618996467 73.1872006978374,81.41975620485027 73.00215722434223,81.56473114172695 72.81711375084706,81.75803095818264 72.59506158274598,81.9996555695252 72.37300941441208,82.19295513111865 72.18796594114974,82.3862545794691 72.00292246765457,82.53122909140075 71.85488768899813,82.67620353942038 71.70685291010886,82.82117792381905 71.59582682605833,82.917827478057 71.48480074224062,83.01447700386052 71.37377465795726,83.15945123953861 71.22573987930082,83.35275012117927 71.11471379501745,83.497724208195 71.00368771096691,83.64269823138602 70.85565293254331,83.73934754487709 70.6706094588153,83.73934754487709 70.52257468015887,83.78767219098518 70.3745399012696,83.83599682996282 70.18949642800726,83.93264608658501 70.00445295451209,83.98097070446238 69.81940948101692,84.07761991870939 69.67137470236048,84.17426910466747 69.48633122886531,84.2709182621038 69.33829644997604,84.4158919454494 69.1902616713196,84.5608655649703 69.04222689266317,84.70583912084112 68.857183419168,84.80248812265927 68.67213994567282,84.89913709607208 68.48709647217765,85.04411050322233 68.33906169352122,85.23740828013979 68.22803560947068,85.43070594381425 68.11700952518731,85.57567911714432 68.04299213597551,85.72065222696983 67.93196605169214,85.81730093125952 67.8209399676416,85.91394960723119 67.7099138838239,86.05892256821971 67.63589649437927,86.20389546541264 67.56187910493463,86.3005440281413 67.48786171549,86.44551681916346 67.4508530208841,86.59048954639002 67.3768356316723,86.73546220990829 67.30281824222766,86.88043480960187 67.22880085278302,87.07373151031788 67.15478346357122,87.2187039613782 67.11777476873249,87.36367634867202 67.11777476873249,87.50864867222845 67.08076607412659,87.70194500448997 67.04375737952068,87.84691717935493 67.00674868468195,87.99188929054071 66.93273129523732,88.13686133796 66.89572260063142,88.33015730214538 66.85871390579268,88.47512920072768 66.85871390579268,88.62010103580542 66.82170521118678,88.76507280700025 66.82170521118678,89.00669228401966 66.82170521118678,89.2483115841751 66.82170521118678,89.44160689666751 66.82170521118678,89.63490209597512 66.82170521118678,89.77987342103734 66.82170521118678,89.92484468247858 66.78469651634805,90.1181395984604 66.82170521118678,90.31143440119922 66.85871390579268,90.55305274529383 66.89572260063142,90.74634729302488 66.93273129523732,90.89131812960841 66.93273129523732,91.08461247902596 66.96973999007605,91.22958316685981 66.93273129523732,91.37455379089806 66.93273129523732,91.51952435128624 66.93273129523732,91.71281833248213 66.96973999007605,91.90611220049323 66.96973999007605,92.14772937612724 67.00674868468195,92.34102298918879 67.00674868468195,92.48599312469014 67.04375737952068,92.6309631963959 67.08076607412659,92.77593320430606 67.15478346357122,92.96922644917504 67.26580954738893,93.11419630839373 67.3768356316723,93.30748935494921 67.52487041032873,93.5007822882908 67.63589649437927,93.69407510818564 67.7099138838239,93.8390446488338 67.7469225784298,94.03233727056067 67.8209399676416,94.17730666248826 67.89495735731907,94.32227599059115 67.96897474653088,94.51556832910865 68.08000083058141,94.6122144558467 68.22803560947068,94.75718359291204 68.37607038812712,94.90215266615269 68.56111386162229,95.09544466470834 68.74615733511746,95.24041358925751 68.93120080861263,95.43370538955787 69.11624428187497,95.62699707652791 69.33829644997604,95.86861152594793 69.56034861830994,96.15854863155982 69.78240078617819,96.35183989373036 69.93043556506746,96.54513104259968 70.26351381721906,96.93171300031827 70.55958337476477,97.26997184177162 70.89266162691638,97.55990771521465 71.04069640580565,97.65655294977478 71.29975726851262,97.84984333388275 71.59582682605833,98.09145615468151 71.96591377304867,98.33306879847078 72.22497463598847,98.47803629984264 72.44702680408955,98.62300373738981 72.59506158274598,98.67132620239863 72.78010505624115,98.71964866027702 73.03916591894813,98.81629355507903 73.37224417133257,98.96126084393472 73.66831372864544,99.10622806916945 73.92737459135242,99.20287285043742 74.14942675968632,99.25119523055037 74.3714789277874,99.34783996932674 74.55652240128256,99.3961623282521 74.74156587477773,99.4928070246242 74.92660934804007,99.58945169270737 75.11165282153524,99.68609633244341 75.33370498986915,99.78274094394874 75.51874846313149,99.92770780791761 75.70379193662666,100.0243523484387 75.88883541012183,100.21764134487603 76.03687018877827,100.41093022786663 76.1849049674347,100.6042189974687 76.33293974632397,100.79750765388599 76.48097452498041,100.94247407183866 76.62900930386968,101.08744042617036 76.77704408252612,101.23240671664826 76.88807016657665,101.37737294347608 77.03610494546592,101.5223391065374 77.14713102951646,101.66730520583224 77.2951658081729,101.8605932391365 77.40619189222343,102.00555918976897 77.51721797627397,102.15052507675136 77.70226144976914,102.29549089982174 77.96132231247611,102.44045665935846 78.22038317541592,102.58542235507048 78.47944403835572,102.68206611697678 78.81252229050733,102.87535355539876 79.21961793187074,103.02031906004413 79.66372226830572,103.1652845008648 79.95979182585143,103.21360630026902 80.1818439939525,103.26192809263011 80.4409048568923,103.31024987797718 80.69996571959928,103.31024987797718 80.92201788770035,103.31024987797718 81.14407005580142,103.35857165622292 81.36612222413532,103.45521519143949 81.5881743922364,103.50353694835212 81.81022656033747,103.55185869822162 82.06928742327727,103.6001804410771 82.29133959137835,103.64850217677304 82.51339175947942,103.74514562709373 82.77245262241922,103.84178904892178 82.99450479028746,103.93843244249001 83.25356565322727,104.08339747984428 83.47561782132834,104.18004080251558 83.69766998942941,104.32500573369907 83.91972215776332,104.46997060094145 84.17878302023746,104.61493540467927 84.36382649373263,104.75990014438867 84.58587866206653,104.9048648206226 84.73391344072297,105.04982943303185 84.88194821961224,105.14647247258108 85.02998299826868,105.2431154838705 85.17801777715795,105.33975846675457 85.36306125042029,105.48472288806806 85.51109602907673,105.62968724570237 85.80716558685526,105.87129436660325 86.06622644956224,106.11290131058195 86.32528731250204,106.40282940963516 86.51033078576438,106.49947205284843 86.65836556465365,106.59611466762726 86.84340903791599,106.74107853663736 86.91742642736062,106.88604234199738 87.02845251141116,107.07932731651817 87.10246990108863,107.27261217782507 87.17648729030043,107.41757574945223 87.25050467951223,107.61086041259114 87.28751337435097,107.80414496234152 87.3985394584015,107.99742939887801 87.4725568476133,108.1907137222297 87.58358293189667,108.43231896695215 87.65760032110848,108.62560303517967 87.76862640539184,108.8188869903388 87.80563509999774,108.9638498822751 87.84264379460365,109.10881271047401 87.87965248944238,109.25377547511016 87.87965248944238,109.3987381758343 87.91666118404828,109.54370081299567 87.95366987865418,109.68866338627413 88.02768726809882,109.83362589610624 88.10170465731062,109.93026753363665 88.17572204675525,110.07522993715247 88.24973943619989,110.2201922768727 88.32375682564452,110.41347529742052 88.39777421485633,110.60675820472534 88.50880029890686,110.84836167941103 88.5458089937456,111.0416443317954 88.65683507779613,111.28324748796877 88.80486985645257,111.47652988552 88.95290463534184,111.66981216959539 89.1009394142311,111.8630943405733 89.17495680344291,112.0080558945483 89.13794810883701,112.15301738449489 89.13794810883701,112.29797881105333 89.1009394142311,112.49126061372226 89.17495680344291,112.63622189161833 89.28598288749345,112.78118310554419 89.43401766638272,112.97446462526568 89.54504375043325,113.11942569050007 89.65606983425096,113.21606636545039 89.76709591853432,113.31270701199537 89.91513069719076,113.45766792853829 90.0261567812413,113.55430850441917 90.17419156013057,113.6509490518365 90.322226338787,113.79590981980436 90.43325242283754,113.89255029641208 90.61829589633271,113.98919074475998 90.76633067522198,114.08583116458612 90.87735675927252,114.23079174151644 91.02539153792895,114.3274320907658 91.09940892737359,114.47239256140892 91.21043501142412,114.61735296840197 91.28445240063593,114.7139932042337 91.3954784849193,114.85895350505598 91.50650456896983,115.00391374205356 91.65453934762627,115.14887391545926 91.7655654316768,115.34215404742281 91.87659151572734,115.48711407216615 91.98761759977788,115.63207403302658 92.06163498922251,115.77703393020784 92.20966976787895,115.92199376382632 92.39471324137412,116.01863361732103 92.57975671486929,116.066953533591 92.80180888297036,116.11527344275964 93.06086974567734,116.066953533591 93.31993060861714,116.01863361732103 93.57899147155695,115.97031369412434 93.76403494481929,115.92199376382632 93.94907841854729,115.92199376382632 94.13412189180963,115.92199376382632 94.2821566706989,115.97031369412434 94.46720014396124,115.97031369412434 94.68925231229514,116.01863361732103 94.87429578555748,116.01863361732103 95.13335664849728,115.97031369412434 95.35540881659836,115.92199376382632 95.57746098469943,115.82535388186807 95.83652184763923,115.82535388186807 96.05857401550747,115.82535388186807 96.31763487844728,115.77703393020784 96.50267835194245,115.77703393020784 96.68772182543762,115.72871397141716 96.87276529869996,115.72871397141716 97.05780877242796,115.6803940058162 97.2428522456903,115.72871397141716 97.50191310839728,115.77703393020784 97.72396527673118,115.77703393020784 97.90900874999352,115.77703393020784 98.09405222348869,115.77703393020784 98.24208700237796,115.72871397141716 98.4271304756403,115.72871397141716 98.57516525429673,115.6803940058162 98.6861913385801,115.58375405316474 98.83422611723654,115.53543406614335 99.01926959096454,115.48711407216615 99.16730436938815,115.48711407216615 99.38935653772205,115.48711407216615 99.61140870582312,115.48711407216615 99.8334608739242,115.43879407091299 100.05551304202527,115.3904740626167 100.2035478206817,115.29383402504027 100.35158259957097,115.24551399567281 100.53662607283331,115.24551399567281 100.68466085172258,115.24551399567281 100.86970432521775,115.29383402504027 101.01773910410702,115.29383402504027 101.16577388253063,115.34215404742281 101.3138086614199,115.34215404742281 101.46184344007634,115.3904740626167 101.6098782189656,115.3904740626167 101.79492169246078,115.43879407091299 101.97996516595595,115.43879407091299 102.23902602866292,115.48711407216615 102.42406950215809,115.53543406614335 102.60911297565326,115.58375405316474 102.7571477543097,115.63207403302658 102.90518253319897,115.63207403302658 103.09022600646131,115.58375405316474 103.27526947995648,115.63207403302658 103.42330425884575,115.63207403302658 103.60834773210809,115.6803940058162 103.75638251099735,115.72871397141716 103.97843467909843,115.82535388186807 104.08946076314896,115.92199376382632 104.20048684743233,116.066953533591 104.31151293125004,116.26023312757025 104.38553032069467,116.45351260824827 104.42253901530057,116.5984721443383 104.38553032069467,116.79175142687745 104.38553032069467,116.93671081433422 104.31151293125004,117.08167013822822 104.20048684743233,117.12998989861808 104.05245206854306,117.08167013822822 104.42253901530057,117.37158859454212 104.4595477101393,117.1783096518775 104.4965564047452,116.93671081433422 104.53356509958394,116.74343161677825 104.60758248902857,116.5501523061248 104.68159987824038,116.40519274864346 104.79262596229091,116.45351260824827 105.01467813039199,116.5501523061248 105.19972160388716,116.64679197553778 105.42177377198823,116.74343161677825 105.6068172454834,116.79175142687745 105.75485202413984,116.88839102568454 105.97690419247374,117.0333503705915 106.16194766573608,117.12998989861808 106.38399983383715,117.1783096518775 106.56904330733232,117.2266293982102 106.75408678059466,117.27494913735427 106.93913025432266,117.37158859454212 107.12417372781783,117.46822802338284 107.30921720108017,117.51654772728216 107.45725197996944,117.51654772728216 107.64229545346461,117.56486742396373 107.82733892672695,117.61318711351487 108.01238240045495,117.61318711351487 108.1974258737173,117.56486742396373 108.30845195776783,117.46822802338284 108.5675128204748,117.3232688694552 108.60452151531354,117.12998989861808 108.64153020991944,116.98503059594077 108.64153020991944,116.74343161677825 108.64153020991944,116.5501523061248 108.60452151531354,116.40519274864346 108.53050412563607,116.26023312757025 108.493495431263,116.11527344275964 108.493495431263,115.92199376382632 108.60452151531354,115.77703393020784 108.67853890452534,115.58375405316474 108.75255629396997,115.3904740626167 108.78956498857588,115.1971939590585 108.78956498857588,115.05223380689858 108.82657368341461,114.81063341195113 108.78956498857588,114.61735296840197 108.82657368341461,114.4240724115225 108.90059107285924,114.23079174151644 109.01161715690978,114.08583116458612 109.08563454612158,113.94087052420946 109.08563454612158,113.79590981980436 109.01161715690978,113.60262878163485 108.90059107285924,113.45766792853829 108.78956498857588,113.45766792853829 108.82657368341461,113.60262878163485 108.82657368341461,113.79590981980436 108.86358237802051,113.94087052420946 108.86358237802051,114.08583116458612 108.90059107285924,114.27911191975 108.90059107285924,114.4240724115225 108.90059107285924,114.61735296840197 108.93759976746514,114.76231331165764 108.93759976746514,114.9555936702236 108.93759976746514,115.1005538647587 108.90059107285924,115.24551399567281 108.82657368341461,115.3904740626167 108.78956498857588,115.58375405316474 108.71554759936407,115.77703393020784 108.71554759936407,115.97031369412434 108.67853890452534,116.16359334468143 108.64153020991944,116.3568728819373 108.60452151531354,116.50183246069355 108.5675128204748,116.64679197553778 108.5675128204748,116.8400712297589 108.5675128204748,117.08167013822822 108.5675128204748,117.27494913735427 108.60452151531354,117.46822802338284 108.5675128204748,117.66150679602288 108.53050412563607,117.80646580137545 108.493495431263,117.9997443757893 108.45648673642427,118.24134243471781 108.45648673642427,118.48294031675323 108.493495431263,118.6762184946565 108.5675128204748,118.86949655946228 108.60452151531354,119.06277451105416 108.60452151531354,119.30437179116416 108.60452151531354,119.54596889426466 108.60452151531354,119.88420454139123 108.60452151531354,120.12580121986684 108.5675128204748,120.31907843521913 108.53050412563607,120.56067479489138 108.493495431263,120.80227097769966 108.45648673642427,121.04386698370217 108.41947804181837,121.23714366089553 108.41947804181837,121.43042022496229 108.41947804181837,121.62369667584426 108.493495431263,121.91361113952007 108.53050412563607,122.10688730701804 108.60452151531354,122.30016336136032 108.64153020991944,122.49343930240138 108.78956498857588,122.63839618393104 108.93759976746514,122.7833530016942 109.08563454612158,122.92830975580728 109.23366932501085,123.07326644597924 109.34469540906139,123.2665419341065 109.45572149311192,123.45981730878702 109.52973888255656,123.60477376560448 109.60375627200119,123.74973015845171 109.6407649666071,123.9430052501557 109.6407649666071,124.08796149445698 109.6407649666071,124.28123638787656 109.71478235605173,124.47451116790762 109.82580843986943,124.66778583478299 109.93683452391997,124.86106038847356 110.04786060820334,125.10265342105413 110.12187799764797,125.29592771976604 110.19589538685977,125.48920190535136 110.19589538685977,125.63415747010731 110.23290408146568,125.82743145746645 110.26991277630441,125.97238687350182 110.26991277630441,126.16566066272208 110.23290408146568,126.35893433840829 110.19589538685977,126.55220790102612 110.15888669225387,126.74548135022633 110.19589538685977,126.93875468632905 110.19589538685977,127.18034619718674 110.19589538685977,127.42193753097672 110.19589538685977,127.61521047048154 110.23290408146568,127.80848329697619 110.23290408146568,127.95343784239958 110.23290408146568,128.1467104704643 110.23290408146568,128.29166486737086 110.23290408146568,128.4366192005109 110.23290408146568,128.67820961403777 110.19589538685977,128.91979985070066 110.19589538685977,129.11307191249216 110.15888669225387,129.35466183070093 110.15888669225387,129.5962515717838 110.15888669225387,129.83784113594447 110.15888669225387,129.98279478945187 110.19589538685977,130.1760662284796 110.23290408146568,130.32101973344106 110.26991277630441,130.56260876668966 110.26991277630441,130.75587986581377 110.26991277630441,130.99746858066646 110.23290408146568,131.19073942510295 110.23290408146568,131.4323278211814 110.23290408146568,131.67391604051227 110.26991277630441,131.91550408292096 110.26991277630441,132.10877438928583 110.30692147114314,132.25372704470647 110.34393016551621,132.39867963644792 110.38093886035495,132.59194965998176 110.38093886035495,132.73690210306086 110.41794755496085,132.88185448246077 110.41794755496085,133.07512422266882 110.41794755496085,133.22007645340636 110.38093886035495,133.41334599547554 110.34393016551621,133.6066154242435 110.34393016551621,133.79988473965204 110.34393016551621,133.99315394184669 110.34393016551621,134.2347402854648 110.34393016551621,134.37969200662337 110.34393016551621,134.52464366404456 110.34393016551621,134.66959525772836 110.34393016551621,134.8145467879367 110.38093886035495,135.0078153955692 110.34393016551621,135.15276677711518 110.30692147114314,135.34603518655058 110.26991277630441,135.49098641925957 110.26991277630441,135.6359375883476 110.30692147114314,135.78088869378553 110.34393016551621,135.92583973545698 110.41794755496085,136.07079071347835 110.41794755496085,136.21574162776233 110.41794755496085,136.3606924782507 110.41794755496085,136.50564326505992 110.41794755496085,136.69891088202712 110.38093886035495,136.84386152017396 110.38093886035495,136.98881209472893 110.38093886035495,137.1337626054883 110.41794755496085,137.32702985429205 110.41794755496085,137.56861375572043 110.45495624956675,137.81019748040126 110.49196494440548,138.0517810282763 110.56598233361728,138.29336439905455 110.60299102845602,138.43831433641026 110.63999972306192,138.5832642103196 110.67700841790065,138.72821402043337 110.71401711250655,138.92148033480044 110.78803450195119,139.06642999628093 110.86205189139582,139.25969611265464 110.97307797544636,139.4529621155525 111.08410405926406,139.6462280052947 111.1211127541028,139.83949378170655 111.1211127541028,140.03275944499183 111.1211127541028,140.27434136497322 111.08410405926406,140.5159231077123 111.04709536465816,140.7091883745452 111.01008667005226,140.9024535283388 111.01008667005226,141.0474023190909 111.01008667005226,141.24066727474565 110.93606928084046,141.43393211692455 110.86205189139582,141.62719684591866 110.75102580711246,141.86877759802155 110.75102580711246,142.0620420721243 110.71401711250655,142.2553064331587 110.71401711250655,142.40025462952326 110.71401711250655,142.54520276232506 110.71401711250655,142.69015083127306 110.71401711250655,142.8834148242604 110.75102580711246,143.076678703801 110.82504319678992,143.26994247030234 110.86205189139582,143.41489022079622 110.86205189139582,143.60815378910047 110.78803450195119,143.80141724427813 110.71401711250655,143.99468058600905 110.67700841790065,144.18794381443877 110.67700841790065,144.3812069298001 110.71401711250655,144.57446993191843 110.75102580711246,144.76773282093927 110.75102580711246,145.0093112725881 110.75102580711246,145.20257390668849 110.71401711250655,145.4441520399705 110.75102580711246,145.63741441929596 110.75102580711246,145.8306766852329 110.78803450195119,146.0722543586453 110.78803450195119,146.26551636992372 110.78803450195119,146.50709372470737 110.75102580711246,146.74867090265616 110.75102580711246,146.9419325175695 110.75102580711246,147.13519401921076 110.75102580711246,147.32845540787093 110.78803450195119,147.52171668293886 110.82504319678992,147.7149778449384 110.89906058600172,147.90823889372405 110.89906058600172,148.10149982917937 110.86205189139582,148.29476065159542 110.82504319678992,148.48802136056474 110.82504319678992,148.68128195634927 110.86205189139582,148.82622732891468 110.89906058600172,149.01948772658943 110.93606928084046,149.21274801105028 111.01008667005226,149.45432320734835 111.08410405926406,149.64758323700516 111.15812144894153,149.79252818485838 111.23213883815333,149.93747306926525 111.34316492220387,150.1307328157418 111.45419100648724,150.27567755139899 111.52820839569904,150.42062222328968 111.60222578514367,150.56556683167582 111.71325186896138,150.71051137614995 111.86128664785065,150.8071410371631 112.04633012134582,150.8554558569449 112.19436490023509,150.9037706698582 112.30539098428562,150.95208547552465 112.45342576294206,151.04871506566997 112.5274431523867,151.19365939786076 112.5274431523867,151.33860366637236 112.5274431523867,151.5318625922082 112.5274431523867,151.72512140451 112.5644518469926,151.87006543963798 112.6014605415985,152.06332405383 112.67547793104313,152.25658255483722 112.71248662588187,152.44984094263054 112.74949532048777,152.64309921715176 112.74949532048777,152.83635737851728 112.78650401509367,153.029615426698 112.74949532048777,153.22287336166482 112.67547793104313,153.41613118330133 112.6014605415985,153.5610744752048 112.6014605415985,153.75433209878975 112.6014605415985,153.94758960907348 112.63846923643723,154.140847006056 112.63846923643723,154.3341042898537 112.63846923643723,154.52736146052484 112.63846923643723,154.67230426424067 112.6014605415985,154.8655612366274 112.6014605415985,155.01050389176817 112.6014605415985,155.15544648308423 112.63846923643723,155.34870317249442 112.67547793104313,155.49364561520633 112.67547793104313,155.63858799435548 112.63846923643723,155.78353030967992 112.5274431523867,155.88015848441864 112.3423996786587,155.92847256129608 112.15735620539635,155.97678663107217 111.97231273190118,156.12172879779246 111.82427795324475,156.31498492113315 111.67624317435548,156.45992693922017 111.56521709053777,156.65318286439287 111.4171823116485,156.79812473387574 111.30615622759797,156.99138046090957 111.26914753299206,157.13632218178827 111.26914753299206,157.28126383913332 111.26914753299206,157.42620543265366 111.30615622759797,157.61946079166955 111.34316492220387,157.81271603741334 111.34316492220387,158.05428493543877 111.3801736170426,158.29585365657113 111.3801736170426,158.53742220072309 111.3801736170426,158.7306769087154 111.34316492220387,158.9239315034938 111.34316492220387,159.1171859849419 111.3801736170426,159.3104403532634 111.4171823116485,159.5036946084001 111.45419100648724,159.64863522542873 111.45419100648724,159.79357577880728 111.45419100648724,159.93851626830292 111.49119970109314,160.1317701555963 111.45419100648724,160.3250239295303 111.45419100648724,160.46996418572962 111.4171823116485,160.6632177614374 111.4171823116485,160.80815786894527 111.4171823116485,160.95309791268664 111.45419100648724,161.04972457321128 111.49119970109314,161.1946645108692 111.52820839569904,161.33960438499344 111.60222578514367,161.48454419526388 111.63923447974958,161.62948394188425 111.71325186896138,161.77442362491274 111.75026056380011,161.96767643647036 111.75026056380011,162.16092913472676 111.67624317435548,162.30586858425522 111.63923447974958,162.450807969959 111.60222578514367,162.5957472921 111.60222578514367,162.78899962242576 111.60222578514367,162.98225183959585 111.63923447974958,163.17550394355203 111.67624317435548,163.3204429471516 111.71325186896138,163.4653818871302 111.71325186896138,163.61032076342963 111.75026056380011,163.75525957604987 111.75026056380011,163.85188541575917 111.78726925863884,163.99682412229595 111.78726925863884,164.1417627648916 111.82427795324475,164.3350141897099 111.89829534245655,164.43163985942374 111.97231273190118,164.62489111430477 112.00932142673992,164.8181422559428 112.04633012134582,165.01139328436693 112.04633012134582,165.20464419954806 112.00932142673992,165.39789500142797 111.93530403729528,165.54283302868134 111.86128664785065,165.68777099216823 111.75026056380011,165.83270889206324 111.71325186896138,165.97764672810445 111.67624317435548,166.12258450052468 111.67624317435548,166.26752220935305 111.67624317435548,166.4607723885856 111.63923447974958,166.65402245463338 111.67624317435548,166.84727240752545 111.67624317435548,166.9922097978706 111.71325186896138,167.185459552682 111.71325186896138,167.3787091941922 111.67624317435548,167.62027108695474 111.63923447974958,167.81352047369 111.63923447974958,168.00676974724047 111.63923447974958,168.15170662821038 111.60222578514367,168.39326795484521 111.60222578514367,168.63482910455787 111.60222578514367,168.87639007740654 111.60222578514367,169.06963872848428 111.60222578514367,169.31119938282063 111.60222578514367,169.50444777909433 111.60222578514367,169.69769606212503 111.63923447974958,169.89094423191273 111.67624317435548,170.13250428493484 111.75026056380011,170.3740641612094 111.78726925863884,170.56731193471933 111.86128664785065,170.80887149245245 111.89829534245655,171.00211901127477 111.89829534245655,171.1953664169996 111.89829534245655,171.38861370942323 111.89829534245655,171.53354910440976 111.86128664785065,171.6784844357462 111.82427795324475,171.8234197034908 111.78726925863884,172.06497834145557 111.82427795324475,172.30653680258547 111.93530403729528,172.49978344404371 112.04633012134582,172.644718350959 112.15735620539635,172.7896531940787 112.19436490023509,172.88627638743492 112.26838228944689,173.07952268928057 112.30539098428562,173.27276887794142 112.37940837349743,173.46601495347568 112.41641706810333,173.6109494358534 112.45342576294206,173.75588385443552 112.45342576294206,173.90081820936757 112.45342576294206,174.04575250064954 112.45342576294206,174.19068672819412 112.49043445754796,174.33562089217594 112.5274431523867,174.52886634512106 112.5644518469926,174.72211168464855 112.5644518469926,174.96366820010007 112.5644518469926,175.15691328511457 112.49043445754796,175.3018470244424 112.37940837349743,175.44678070017835 112.26838228944689,175.59171431229333 112.15735620539635,175.68833668489242 112.08333881595172,175.7849590292608 112.00932142673992,175.9298924927425 111.93530403729528,176.02651476647588 111.93530403729528,176.17144812384504 111.93530403729528,176.3163814174186 111.93530403729528,176.5096257100231 111.89829534245655,176.7028698893846 111.89829534245655,176.89611395538668 111.86128664785065,177.08935790834948 111.86128664785065,177.23429079868947 111.82427795324475,177.42753455371712 111.82427795324475,177.57246729533654 111.86128664785065,177.76571085228352 111.89829534245655,178.00726513905101 111.89829534245655,178.2488192487799 111.89829534245655,178.44206240933272 111.89829534245655,178.63530545675894 111.89829534245655,178.78023766793194 111.89829534245655,178.92516981539666 111.93530403729528,179.07010189941502 111.93530403729528,179.21503391955048 111.97231273190118,179.35996587600675 111.97231273190118,179.50489776881295 111.97231273190118,179.69814019370824 111.97231273190118,179.84307193782297 111.97231273190118,180.0363141646376 111.97231273190118,180.18124576014816 111.97231273190118,180.3261772922706 111.93530403729528,180.47110876059742 111.93530403729528,180.66435061953962 111.89829534245655,180.85759236497688 111.89829534245655,181.0025235999492 111.93530403729528,181.1957651473349 111.93530403729528,181.34069623379037 111.93530403729528,181.48562725636293 111.97231273190118,181.6788685209176 112.00932142673992,181.82379939494422 111.97231273190118,182.06535071021062 111.89829534245655,182.210281414591 111.86128664785065,182.4035222545208 111.78726925863884,182.54845281026792 111.75026056380011,182.69338330230676 111.63923447974958,182.7900035950297 111.52820839569904,182.83831373078283 111.34316492220387,182.7900035950297 111.1951301433146,182.7900035950297 111.04709536465816,182.83831373078283 110.89906058600172,182.93493398101418 110.75102580711246,183.0315542028402 110.60299102845602,183.1281743964646 110.45495624956675,183.1764844827121 110.26991277630441,183.1764844827121 110.04786060820334,183.1764844827121 109.89982582931407,183.1281743964646 109.75179105065763,183.1281743964646 109.56674757716246,183.1281743964646 109.34469540906139,183.1281743964646 109.15965193556622,183.1764844827121 108.93759976746514,183.22479456180008 108.75255629396997,183.27310463390313 108.53050412563607,183.27310463390313 108.38246934721246,183.27310463390313 108.2344345683232,183.27310463390313 108.04939109482802,183.27310463390313 107.86434762156568,183.27310463390313 107.67930414807051,183.32141469878843 107.49426067457534,183.41803480742965 107.38323459052481,183.51465488798567 107.27220850624144,183.65958495554514 107.16118242242374,183.8528249466326 107.0871650329791,184.04606482438976 106.97613894892856,184.28761451254832 106.86511286487803,184.48085413587978 106.71707808622159,184.5774739049375 106.53203461249359,184.67409364579362 106.34699113923125,184.72240350564243 106.16194766573608,184.72240350564243 105.97690419247374,184.72240350564243 105.75485202413984,184.72240350564243 105.5698085508775,184.72240350564243 105.31074768793769,184.67409364579362 105.12570421444252,184.67409364579362 104.94066074094735,184.67409364579362 104.79262596229091,184.62578377890168 104.57057379418984,184.62578377890168 104.34852162585594,184.62578377890168 104.1634781525936,184.62578377890168 104.01544337370433,184.62578377890168 103.86740859504789,184.62578377890168 103.71937381615862,184.62578377890168 103.57133903750218,184.62578377890168 103.42330425884575,184.62578377890168 103.23826078535058,184.62578377890168 103.09022600646131,184.62578377890168 102.90518253319897,184.67409364579362 102.7201390597038,184.67409364579362 102.53509558620863,184.67409364579362 102.31304341810755,184.72240350564243 102.16500863945112,184.81902320406516 102.05398255540058,184.91564287408255 101.94295647111721,185.01226251589833 101.75791299762204,185.06057232627063 101.5728695243597,185.06057232627063 101.42483474570327,185.06057232627063 101.276799966814,185.01226251589833 101.12876518792473,184.96395269859931 100.94372171442956,184.96395269859931 100.75867824116722,184.96395269859931 100.53662607283331,184.96395269859931 100.31457390496507,184.96395269859931 100.092521736864,184.96395269859931 99.907478263136,185.01226251589833 99.72243478987366,185.06057232627063 99.50038262177259,185.1088821295416 99.31533914827742,185.1088821295416 99.13029567478225,185.15719192568213 98.94525220128708,185.15719192568213 98.6861913385801,185.15719192568213 98.4271304756403,185.1088821295416 98.24208700237796,185.06057232627063 98.05704352888279,185.06057232627063 97.87200005538762,185.01226251589833 97.68695658189245,185.01226251589833 97.53892180323601,184.96395269859931 97.35387832974084,184.96395269859931 97.2428522456903,185.01226251589833 97.09481746703386,185.06057232627063 96.90977399353869,185.15719192568213 96.72473052004352,185.25381149657187 96.50267835194245,185.25381149657187 96.31763487844728,185.30212127158302 96.16960009979084,185.30212127158302 95.98455662629567,185.3504310393473 95.83652184763923,185.3987408001849 95.76250445796177,185.49536030055606 95.72549576335587,185.73690892755985 95.76250445796177,185.88183801874402 95.83652184763923,186.07507670827908 95.87353054224513,186.2200056508591 95.87353054224513,186.4132441423135 95.87353054224513,186.60648252032115 95.87353054224513,186.79972078528954 95.7995131528005,186.99295893698581 95.72549576335587,187.23450646738638 95.72549576335587,187.42774436448235 95.7995131528005,187.620982148248 95.87353054224513,187.81421981897438 95.91053923685104,188.00745737642865 95.91053923685104,188.20069482072722 95.87353054224513,188.3939321518701 95.83652184763923,188.63547865662258 95.83652184763923,188.82871573304874 95.87353054224513,189.0219526963483 95.91053923685104,189.21518954628846 95.94754793168977,189.45673544966849 95.98455662629567,189.69828117630095 96.02156532090157,189.843208527338 96.05857401550747,190.03644489636645 96.05857401550747,190.18137209882843 96.05857401550747,190.32629923775676 96.05857401550747,190.51953532369225 96.05857401550747,190.7610802720883 96.02156532090157,190.9543161036563 95.94754793168977,191.1475518217776 95.83652184763923,191.38909631033312 95.68848706874996,191.5340229186695 95.57746098469943,191.72725829741103 95.46643490041606,191.87218475702684 95.39241751120426,192.06541993757128 95.31840012199245,192.21034624878666 95.24438273254782,192.35527249629376 95.02233056421392,192.500198680209 94.83728709095158,192.54850739394897 94.6522436174564,192.54850739394897 94.50420883879997,192.500198680209 94.3561740599107,192.500198680209 94.20813928102143,192.54850739394897 94.02309580775909,192.54850739394897 93.87506102910265,192.5968161006167 93.72702625021338,192.5968161006167 93.57899147155695,192.5968161006167 93.39394799806178,192.64512480021222 93.2089045245666,192.64512480021222 93.06086974567734,192.64512480021222 92.875826272415,192.69343349299743 92.72779149352573,192.69343349299743 92.54274802026339,192.74174217839027 92.39471324137412,192.8383595282212 92.20966976787895,192.93497684958857 92.06163498922251,193.03159414284164 91.91360021033324,193.0799027789035 91.7285567370709,193.0799027789035 91.58052195841447,193.0799027789035 91.50650456896983,193.128211407864 91.4324871795252,193.3214458526636 91.3954784849193,193.51468018439482 91.35846979008056,193.70791440299945 91.32146109547466,193.90114850824466 91.32146109547466,194.04607401308022 91.28445240063593,194.28761637944262 91.28445240063593,194.48085014539538 91.32146109547466,194.67408379801782 91.35846979008056,194.81900896321167 91.3954784849193,195.01224241781165 91.4694958741311,195.20547575916862 91.58052195841447,195.39870898751542 91.69154804223217,195.4953255590517 91.8025741262827,195.68855861757766 91.83958282112144,195.88179156274418 91.87659151572734,196.07502439501695 91.83958282112144,196.2199489447812 91.8025741262827,196.3648734309245 91.7285567370709,196.50979785333038 91.61753065302037,196.60641409963137 91.54351326357573,196.70303031761432 91.50650456896983,196.84795459147426 91.4694958741311,196.99287880188785 91.4694958741311,197.18611098319525 91.50650456896983,197.4276510507043 91.58052195841447,197.57257500628475 91.65453934762627,197.76580684809596 91.7285567370709,197.9107306553051 91.7655654316768,198.0556543986604 91.8025741262827,198.24888595755328 91.83958282112144,198.44211740311584 91.83958282112144,198.63534873578465 91.83958282112144,198.82857995509403 91.8025741262827,199.02181106124772 91.7655654316768,199.26334978477098 91.7285567370709,199.4082729340298 91.69154804223217,199.55319601966767 91.65453934762627,199.69811904148082 91.61753065302037,199.8913496384048 91.58052195841447,200.08458012205665 91.4694958741311,200.27781049261102 91.4324871795252,200.51934829671518 91.35846979008056,200.71257841252373 91.35846979008056,200.95411589826108 91.35846979008056,201.14734575961484 91.32146109547466,201.34057550760917 91.32146109547466,201.53380514256423 91.35846979008056,201.77534202716197 91.35846979008056,202.016878734692 91.17342631658539,202.25841526547447 90.95137414848432,202.25841526547447 90.76633067522198,202.25841526547447 90.61829589633271,202.3067225505656 90.47026111767627,202.35502982829348 90.322226338787,202.40333709918195 90.10017417068593,202.4516443629982 89.87812200235203,202.4516443629982 89.65606983425096,202.4516443629982 89.39700897154398,202.4516443629982 89.21196549828164,202.4516443629982 88.98991333018057,202.4516443629982 88.8418785512913,202.49995161956758 88.65683507779613,202.54825886912295 88.50880029890686,202.54825886912295 88.28674813103862,202.5965661117225 88.06469596270472,202.54825886912295 87.84264379460365,202.54825886912295 87.65760032110848,202.54825886912295 87.4725568476133,202.54825886912295 87.32452206895687,202.54825886912295 87.1394785954617,202.5965661117225 86.99144381680526,202.5965661117225 86.80640034331009,202.5965661117225 86.62135687004775,202.6448733470752 86.43631339655258,202.74148779685493 86.25126992305741,202.78979501102003 86.14024383900687,202.93471661119838 86.02921775495633,203.12794531247346 85.9922090601176,203.32117390041822 85.9922090601176,203.5144023754401 86.02921775495633,203.70763073730632 86.06622644956224,203.94916603018646 86.06622644956224,204.19070114640635 86.06622644956224,204.38392911216943 86.06622644956224,204.57715696457308 86.06622644956224,204.81869162103976 86.10323514416814,205.01191921898862 86.14024383900687,205.20514670363627 86.17725253361277,205.39837407521554 86.32528731250204,205.68821492031566 86.43631339655258,205.97805551087367 86.58434817520902,206.31620254457812 86.62135687004775,206.55773592783953 86.65836556465365,206.79926913435338 86.69537425902672,206.99249557233998 86.65836556465365,207.18572189702536 86.69537425902672,207.3306415663974 86.69537425902672,207.523867692973 86.76939164870419,207.66878721374087 86.80640034331009,207.86201314241043 86.80640034331009,208.00693251457415 86.80640034331009,208.2484646603989 86.84340903791599,208.39338386277086 86.88041773275472,208.58660936710658 86.91742642736062,208.7315284209617 86.95443512219936,208.87644741139957 86.99144381680526,209.02136633804184 87.06546120624989,209.1179789204325 87.10246990108863,209.26289774099132 87.17648729030043,209.4561227360973 87.21349598513916,209.60104140805197 87.25050467951223,209.74596001650207 87.32452206895687,209.89087856121478 87.36153076356277,210.08410318853566 87.3985394584015,210.27732770258444 87.36153076356277,210.47055210371036 87.32452206895687,210.66377639144775 87.25050467951223,210.90530659203068 87.21349598513916,211.14683661592426 87.21349598513916,211.38836646295385 87.17648729030043,211.5332842862117 87.17648729030043,211.726507951651 87.17648729030043,211.871425626392 87.21349598513916,212.01634323765757 87.21349598513916,212.2095666200912 87.28751337435097,212.40278988951468 87.32452206895687,212.59601304572425 87.36153076356277,212.78923608883633 87.3985394584015,212.9341532968101 87.36153076356277,213.12737614189973 87.36153076356277,213.27229320135666 87.36153076356277,213.41721019730903 87.36153076356277,213.5621271294658 87.3985394584015,213.8036552083213 87.43554815324023,213.99687754415208 87.4725568476133,214.14179422173765 87.50956554245204,214.28671083581867 87.54657423705794,214.43162738604588 87.54657423705794,214.57654387279763 87.54657423705794,214.7214602957538 87.58358293189667,214.86637665505987 87.62059162650257,215.01129295074497 87.62059162650257,215.1079037791933 87.58358293189667,215.25281996888225 87.50956554245204,215.3977360947756 87.36153076356277,215.49434681012644 87.25050467951223,215.59095749713015 87.06546120624989,215.73587347453577 86.88041773275472,215.88078938837862 86.69537425902672,216.0740105077275 86.62135687004775,216.26723151400802 86.58434817520902,216.41214719435084 86.62135687004775,216.605368002638 86.69537425902672,216.75028353449306 86.76939164870419,216.94350414472865 86.80640034331009,217.13672464177944 86.84340903791599,217.32994502570364 86.80640034331009,217.47486023936654 86.80640034331009,217.61977538929204 86.76939164870419,217.81299549047253 86.73238295386545,217.957910491823 86.76939164870419,218.1028254297853 86.80640034331009,218.29604524790193 86.76939164870419,218.48926495289197 86.69537425902672,218.63417965738336 86.43631339655258,218.77909429816646 86.14024383900687,218.87570402337587 85.84417428146116,218.92400887529948 85.62212211336009,218.97231372029637 85.40006994525902,219.0206185580464 85.10400038771331,219.06892338886973 84.77092213532887,219.1655330292706 84.54886996746063,219.2621426412952 84.36382649373263,219.31044743667007 84.17878302023746,219.31044743667007 83.99373954697512,219.31044743667007 83.80869607347995,219.31044743667007 83.58664390537888,219.3587522250018 83.40160043211654,219.31044743667007 83.21655695838854,219.31044743667007 83.03151348489337,219.31044743667007 82.8094613167923,219.31044743667007 82.62441784352995,219.31044743667007 82.43937437003478,219.2621426412952 82.29133959137835,219.2621426412952 82.10629611788318,219.31044743667007 81.921252644388,219.3587522250018 81.73620917089283,219.40705700643593 81.55116569739766,219.40705700643593 81.40313091874123,219.3587522250018 81.18107875064015,219.3587522250018 80.99603527714498,219.3587522250018 80.84800049848855,219.40705700643593 80.66295702499337,219.40705700643593 80.4779135514982,219.40705700643593 80.32987877284177,219.4553617806232 80.1448352993466,219.4553617806232 79.99680052045733,219.40705700643593 79.81175704719499,219.3587522250018 79.62671357346699,219.3587522250018 79.47867879504338,219.31044743667007 79.29363532154821,219.31044743667007 79.0715831532143,219.31044743667007 78.84953098511323,219.31044743667007 78.55346142756753,219.31044743667007 78.29440056486055,219.31044743667007 78.07234839675948,219.31044743667007 77.96132231247611,219.40705700643593 77.88730492326431,219.55197130763554 77.73927014437504,219.55197130763554 77.5542266711127,219.55197130763554 77.36918319761753,219.55197130763554 77.22114841872826,219.55197130763554 77.07311364007182,219.55197130763554 76.88807016657665,219.55197130763554 76.74003538792022,219.50366654765094 76.59200060926378,219.55197130763554 76.40695713576861,219.55197130763554 76.22191366227344,219.55197130763554 76.03687018877827,219.55197130763554 75.88883541012183,219.55197130763554 75.70379193662666,219.55197130763554 75.55575715773739,219.55197130763554 75.40772237908095,219.60027606072254 75.22267890558578,219.64858080659178 74.9636180428788,219.7451902771718 74.74156587477773,219.79349500196986 74.48250501183793,219.79349500196986 74.22344414889812,219.84179971949197 74.00139198102988,219.84179971949197 73.77933981269598,219.84179971949197 73.63130503380671,219.89010443000006 73.44626156054437,219.89010443000006 73.29822678188793,219.93840913355234 73.00215722434223,219.93840913355234 72.70608766679652,219.93840913355234 72.37300941441208,219.89010443000006 72.22497463598847,219.89010443000006 72.0399311624933,219.93840913355234 71.85488768899813,219.98671382994507 71.66984421550296,219.98671382994507 71.52180943684652,219.98671382994507 71.37377465795726,219.93840913355234 71.22573987930082,219.93840913355234 71.07770510041155,219.93840913355234 70.92967032175511,219.93840913355234 70.78163554309867,219.93840913355234 70.59659206937067,219.98671382994507 70.3745399012696,220.03501851932378 70.15248773316853,220.08332320163026 69.93043556506746,220.08332320163026 69.70838339696638,220.08332320163026 69.41231383942068,220.08332320163026 69.11624428187497,220.1316278767772 68.74615733511746,220.228237206029 68.45008777733892,220.1799325448519 68.15401822002605,220.1799325448519 67.89495735731907,220.1799325448519 67.7099138838239,220.1799325448519 67.48786171549,220.1799325448519 67.30281824222766,220.1799325448519 67.11777476873249,220.1799325448519 66.82170521118678,220.228237206029 66.56264434824698,220.27654185987194 66.30358348554,220.32484650678816 66.11854001204483,220.27654185987194 65.89648784417659,220.32484650678816 65.67443567584269,220.37315114666126 65.41537481290288,220.42145577946212 65.19332264480181,220.42145577946212 64.97127047670074,220.42145577946212 64.78622700320557,220.42145577946212 64.6381922243163,220.42145577946212 64.49015744589269,220.37315114666126 64.34212266700342,220.27654185987194 64.23109658295289,220.228237206029 64.08306180429645,220.228237206029 63.89801833080128,220.1799325448519 63.74998355191201,220.1799325448519 63.60194877325557,220.1799325448519 63.490922689205036,220.1799325448519 63.3428879105486,220.1316278767772 63.19485313165933,220.1316278767772 63.04681835300289,220.1316278767772 62.89878357411362,220.1799325448519 62.787757490063086,220.27654185987194 62.750748795457184,220.42145577946212 62.750748795457184,220.61467423968134 62.71374010061845,220.80789258694858 62.71374010061845,221.00111082100193 62.71374010061845,221.19432894175407 62.750748795457184,221.3392424582271 62.750748795457184,221.5324603811314 62.750748795457184,221.7256781909091 62.750748795457184,221.9188958874147 62.750748795457184,222.1121134708228 62.787757490063086,222.35363529110327 62.86177487950772,222.54685261979466 62.89878357411362,222.7400698356505 62.935792268952355,222.93328693814692 62.89878357411362,223.12650392748765 62.89878357411362,223.3197208038473 62.89878357411362,223.51293756690575 62.86177487950772,223.65785006503575 62.787757490063086,223.80276249945746 62.63972271140665,223.89937075373018 62.45467923791148,223.89937075373018 62.1956183752045,223.89937075373018 61.97356620710343,223.89937075373018 61.78852273337543,223.89937075373018 61.60347926011309,223.9476748703455 61.38142709177919,223.9476748703455 61.23339231312275,223.99597897959757" stroke="#4DD2FF" stroke-linecap="round" stroke-linejoin="round" stroke-width="0.5"><title>2022-06-04 12.6km</title></polyline></svg>