<?xml version="1.0" encoding="utf-8" ?>
<svg baseProfile="full" height="200mm" version="1.1" viewBox="0,0,200,200" width="200mm" xmlns="http://www.w3.org/2000/svg" xmlns:ev="http://www.w3.org/2001/xml-events" xmlns:xlink="http://www.w3.org/1999/xlink"><defs /><rect fill="#1a1a1a" height="200" width="200" x="0" y="0" /><text alignment-baseline="middle" fill="#e1ed5e" style="dominant-baseline: central; font-size:9.0px; font-family:Arial;" text-anchor="middle" x="100.0" y="100.0">2021</text><line stroke="#e1ed5e" stroke-width="0.3" x1="100.0" x2="100.0" y1="15.0" y2="10.0" /><path d="M 100.0 14.0 a86.0,86.0 0 0,1 42.46469731375804,11.215312516191453" fill="none" id="id13" stroke="none" /><text fill="#e1ed5e" style="font-size:6.75px; font-family:Arial;" text-anchor="middle"><textPath startOffset="22.20632615414155" xlink:href="#id13">January</textPath></text><path d="M 100.36148047927253 79.00311137660856 l 1.084441437817585 -62.990665870174325 a84.0,84.0 0 0,0 1.4454934592205289,0.03733283143056143 l -2.1685615322329816 62.9626662466014" fill="#4dd2ff" stroke="none" /><line stroke="#e1ed5e" stroke-width="0.3" x1="143.23703022742887" x2="145.7803849466894" y1="26.818313649435467" y2="22.513508569990506" /><path d="M 143.74570117128098 25.957352633546478 a86.0,86.0 0 0,1 28.547481713284135,27.462654790039114" fill="none" id="id14" stroke="none" /><text fill="#e1ed5e" style="font-size:6.75px; font-family:Arial;" text-anchor="middle"><textPath startOffset="19.985693538727396" xlink:href="#id14">February</textPath></text><line stroke="#e1ed5e" stroke-width="0.3" x1="172.23445277983987" x2="176.4835382374775" y1="55.19839476539836" y2="52.563006222186495" /><path d="M 173.08426987136738 54.67131705675599 a86.0,86.0 0 0,1 12.851231095245387,41.99856678651699" fill="none" id="id15" stroke="none" /><text fill="#e1ed5e" style="font-size:6.75px; font-family:Arial;" text-anchor="middle"><textPath startOffset="22.20632615414155" xlink:href="#id15">March</textPath></text><line stroke="#e1ed5e" stroke-width="0.3" x1="184.98032266829074" x2="189.97916517819016" y1="98.17113171792111" y2="98.06355123074" /><path d="M 185.9800911702706 98.14961562048488 a86.0,86.0 0 0,1 -9.607161424134198,41.387399972396054" fill="none" id="id16" stroke="none" /><text fill="#e1ed5e" style="font-size:6.75px; font-family:Arial;" text-anchor="middle"><textPath startOffset="21.466115282336823" xlink:href="#id16">April</textPath></text><line stroke="#e1ed5e" stroke-width="0.3" x1="174.80103733775053" x2="179.2010983576182" y1="140.37084112569926" y2="142.7455964860345" /><path d="M 175.68104954172406 140.8457921977663 a86.0,86.0 0 0,1 -30.038265399797805,32.042727171017184" fill="none" id="id17" stroke="none" /><text fill="#e1ed5e" style="font-size:6.75px; font-family:Arial;" text-anchor="middle"><textPath startOffset="22.206326154141568" xlink:href="#id17">May</textPath></text><line stroke="#e1ed5e" stroke-width="0.3" x1="143.8653032363475" x2="146.44561519142675" y1="172.8068346515853" y2="177.08958963109032" /><path d="M 144.38136562736335 173.6633856474863 a86.0,86.0 0 0,1 -40.68145358897372,12.25698825130547" fill="none" id="id18" stroke="none" /><text fill="#e1ed5e" style="font-size:6.75px; font-family:Arial;" text-anchor="middle"><textPath startOffset="21.466115282336833" xlink:href="#id18">June</textPath></text><line stroke="#e1ed5e" stroke-width="0.3" x1="102.19456741930631" x2="102.32365962044197" y1="184.97166512339345" y2="189.96999836594603" /><path d="M 102.22038585953345 185.97133177190398 a86.0,86.0 0 0,1 -42.740103519485714,-10.115201625700543" fill="none" id="id19" stroke="none" /><text fill="#e1ed5e" style="font-size:6.75px; font-family:Arial;" text-anchor="middle"><textPath startOffset="22.20632615414155" xlink:href="#id19">July</textPath></text><path d="M 91.7346041902142 119.30500536409082 l -23.84305877982715 55.6888488142257 a81.57837348618713,81.57837348618713 0 0,0 -1.2861387074440658,-0.5638054132109421 l 24.798118161928958 -55.27017884772031" fill="#48f4ff" stroke="none" /><path d="M 91.40352486487194 119.15986991738527 l -24.84751680368579 55.38027880558429 a81.69904753695643,81.69904753695643 0 0,0 -1.278131039581389,-0.5867272719030535 l 25.797115839034596 -54.94436446334716" fill="#49f2ff" stroke="none" /><path d="M 91.07499286063937 119.00905698771935 l -25.745829326432144 54.83513113439419 a81.57837348618713,81.57837348618713 0 0,0 -1.265969451633015,-0.6077422696207363 l 26.6859114460654 -54.38383458827389" fill="#48f4ff" stroke="none" /><path d="M 90.7491055286396 118.85261126421891 l -26.73907063221294 54.49216892012304 a81.69904753695643,81.69904753695643 0 0,0 -1.257177521790855,-0.6303749080031721 l 27.673102061686556 -54.023826171210565" fill="#49f2ff" stroke="none" /><path d="M 90.42595943632237 118.69057910512821 l -27.618085954208055 53.91642293826582 a81.57837348618713,81.57837348618713 0 0,0 -1.2442997707008123,-0.6509588307916804 l 28.54207662743536 -53.43303468852942" fill="#48f4ff" stroke="none" /><line stroke="#e1ed5e" stroke-width="0.3" x1="58.666819895761336" x2="56.23545636021788" y1="174.27360380694188" y2="178.64263932499728" /><path d="M 58.180547188652646 175.14741091055294 a86.0,86.0 0 0,1 -31.652253787137756,-30.449443065178592" fill="none" id="id20" stroke="none" /><text fill="#e1ed5e" style="font-size:6.75px; font-family:Arial;" text-anchor="middle"><textPath startOffset="22.20632615414155" xlink:href="#id20">August</textPath></text><path d="M 89.4739219176387 118.17145234162733 l -30.424900661855375 52.52332616666549 a81.69904753695643,81.69904753695643 0 0,0 -1.2108270714228744,-0.7153779763493512 l 31.324495604306634 -51.99182961802239" fill="#49f2ff" stroke="none" /><path d="M 89.1626897886671 117.98757091392108 l -31.262220265133063 51.88846613965654 a81.57837348618713,81.57837348618713 0 0,0 -1.1965636128302997,-0.7350271009985073 l 32.15076307789567 -51.34265057182966" fill="#48f4ff" stroke="none" /><path d="M 88.54995079064634 117.60387380957326 l -33.02977892568802 50.78162106857317 a81.57837348618713,81.57837348618713 0 0,0 -1.1705537127156787,-0.7757791724449091 l 33.899007337143665 -50.20554387503695" fill="#48f4ff" stroke="none" /><path d="M 88.24862548938628 117.40417183066458 l -33.899007337143665 50.20554387503695 a81.57837348618713,81.57837348618713 0 0,0 -1.1570265193582563,-0.7958133903456699 l 34.75819074112481 -49.614589695326174" fill="#48f4ff" stroke="none" /><path d="M 87.36589467227662 116.77436683061367 l -36.66320843856571 48.67793101156403 a81.94039563849502,81.94039563849502 0 0,0 -1.1193497849791343,-0.8582696835985395 l 37.495686952038334 -48.03962198613812" fill="#49efff" stroke="none" /><path d="M 87.07902340077011 116.55440617244103 l -37.27294029687771 47.754238093151166 a81.57837348618713,81.57837348618713 0 0,0 -1.0995308272176287,-0.8735337879841112 l 38.0894286168127 -47.10557039116192" fill="#48f4ff" stroke="none" /><path d="M 86.79598089348748 116.32954008644617 l -38.0894286168127 47.10557039116192 a81.57837348618713,81.57837348618713 0 0,0 -1.084331471653942,-0.8923309802604531 l 38.894630217011326 -46.44294429204429" fill="#48f4ff" stroke="none" /><path d="M 86.51685102203217 116.09983520530335 l -39.12706824619665 46.72049176789316 a81.94039563849502,81.94039563849502 0 0,0 -1.0735538906230837,-0.9149059158432635 l 39.92548761339679 -46.04006146182694" fill="#49efff" stroke="none" /><path d="M 86.24171649860922 115.8653595955263 l -39.767366870373436 45.8577245847504 a81.69904753695643,81.69904753695643 0 0,0 -1.054531028340012,-0.9305010242897935 l 40.55084025162004 -45.16640041868832" fill="#49f2ff" stroke="none" /><path d="M 85.97065885151581 115.62618273729859 l -40.71207619695451 45.345988491923656 a81.94039563849502,81.94039563849502 0 0,0 -1.0414251672751667,-0.9513171983534698 l 41.486600913696535 -44.63847852698361" fill="#49efff" stroke="none" /><path d="M 85.70375840098266 115.38237550388516 l -41.3222975437413 44.461692473411404 a81.69904753695643,81.69904753695643 0 0,0 -1.0218767691599828,-0.9662482675727453 l 42.0815101472921 -43.743809569092726" fill="#49f2ff" stroke="none" /><path d="M 85.44109423537348 115.13401014063109 l -42.248832255233616 43.91774121747878 a81.94039563849502,81.94039563849502 0 0,0 -1.0080621483595928,-0.9866009811274855 l 42.998544355969 -43.18399013342872" fill="#49efff" stroke="none" /><path d="M 85.18274418774928 114.88116024355367 l -42.743107458804836 42.92745157818063 a81.57837348618713,81.57837348618713 0 0,0 -0.9865520352161116,-0.9993720030913021 l 43.47570011907648 -42.185339081108665" fill="#48f4ff" stroke="none" /><path d="M 83.50135304334701 112.99209946851258 l -47.59339035032713 37.47810733205946 a81.57837348618713,81.57837348618713 0 0,0 -0.8592657179801366,-1.1107167706737557 l 48.23146288552533 -36.65331256727245" fill="#48f4ff" stroke="none" /><path d="M 83.28015986056508 112.70617746262583 l -48.23146288552533 36.65331256727245 a81.57837348618713,81.57837348618713 0 0,0 -0.8400192451299221,-1.1253430528346555 l 48.855243397350335 -35.81765663492849" fill="#48f4ff" stroke="none" /><path d="M 83.06392112726016 112.41649034213515 l -48.855243397350335 35.81765663492849 a81.57837348618713,81.57837348618713 0 0,0 -0.8205238564482231,-1.1396358715620563 l 49.46454704617417 -34.971387157915295" fill="#48f4ff" stroke="none" /><path d="M 82.44556493220864 111.52570212397912 l -50.63900589884219 33.24801371223558 a81.57837348618713,81.57837348618713 0 0,0 -0.7606023229622098,-1.1804716959996708 l 51.20381308518145 -32.371420416314464" fill="#48f4ff" stroke="none" /><path d="M 82.24976979558568 111.22182372390057 l -51.20381308518145 32.371420416314464 a81.57837348618713,81.57837348618713 0 0,0 -0.7401697517853685,-1.1933893150576833 l 51.753447476634776 -31.485234769891516" fill="#48f4ff" stroke="none" /><path d="M 82.05923443525364 110.91462005526583 l -52.26892006106341 31.798832725766935 a82.18174374003362,82.18174374003362 0 0,0 -0.724839552815302,-1.2148727832116302 l 52.80854048957695 -30.894397848669193" fill="#4aecff" stroke="none" /><line stroke="#e1ed5e" stroke-width="0.3" x1="26.63291911575756" x2="22.317208475507996" y1="142.92168965132927" y2="145.44649492493687" /><path d="M 25.769776987707644 143.4266507060508 a86.0,86.0 0 0,1 -11.730757126820373,-40.83630448921669" fill="none" id="id21" stroke="none" /><text fill="#e1ed5e" style="font-size:6.75px; font-family:Arial;" text-anchor="middle"><textPath startOffset="21.46611528233685" xlink:href="#id21">September</textPath></text><path d="M 81.87401531095188 110.60418214915194 l -52.28774620466987 30.589719368899274 a81.57837348618713,81.57837348618713 0 0,0 -0.6986527442203139,-1.2181599491631938 l 52.80655094504257 -29.685139573877773" fill="#48f4ff" stroke="none" /><path d="M 81.69416730710424 110.29060199501025 l -52.80655094504257 29.685139573877773 a81.57837348618713,81.57837348618713 0 0,0 -0.6775806102174268,-1.2300056241371593 l 53.30970796471151 -28.771763431342794" fill="#48f4ff" stroke="none" /><path d="M 81.35079622478065 109.6543875284942 l -53.79706816739281 27.84986159435755 a81.57837348618713,81.57837348618713 0 0,0 -0.634840300561212,-1.2526001403222091 l 54.26848713774029 -26.919707242332656" fill="#48f4ff" stroke="none" /><path d="M 81.02952815118164 109.00673069616217 l -54.83283678809142 26.03333212756724 a81.69904753695643,81.69904753695643 0 0,0 -0.5922223245302098,-1.2755942004667273 l 55.27283372946145 -25.085617859821685" fill="#49f2ff" stroke="none" /><path d="M 80.73074385275274 108.34839909993369 l -20.484778619090886 8.875023824434956 a43.32469939231996,43.32469939231996 0 0,0 -0.2905829237879255,-0.6868521950266263 l 20.63451252407112 -8.52109710374217" fill="#ff0000" stroke="none" /><path d="M 80.20201598880116 107.00284435728193 l -34.24380863032567 12.11254953550179 a57.32288928155842,57.32288928155842 0 0,0 -0.3210332083970191,-0.933072775915557 l 34.447232669665915 -11.521304056496938" fill="#e4ff1a" stroke="none" /><path d="M 80.0844068197444 106.66101706037122 l -57.45020199392788 19.214932346715823 a81.57837348618713,81.57837348618713 0 0,0 -0.433949355614174,-1.3355587877415542 l 57.7724436005583 -18.223174658996463" fill="#48f4ff" stroke="none" /><path d="M 79.97269907076064 106.31721596034903 l -57.7724436005583 18.223174658996463 a81.57837348618713,81.57837348618713 0 0,0 -0.41089561225401594,-1.3428306351071457 l 58.077565985318444 -17.226017051337273" fill="#48f4ff" stroke="none" /><path d="M 79.86692584326677 105.97154293290107 l -58.077565985318444 17.226017051337273 a81.57837348618713,81.57837348618713 0 0,0 -0.3877201116560428,-1.3497045727747519 l 58.36547873386059 -16.223755003057924" fill="#48f4ff" stroke="none" /><path d="M 79.76711848015287 105.62410040840567 l -58.36547873386059 16.223755003057924 a81.57837348618713,81.57837348618713 0 0,0 -0.36442972122135964,-1.3561785638485784 l 58.636096531423725 -15.216685506033805" fill="#48f4ff" stroke="none" /><path d="M 79.67330655649465 105.27499134158121 l -30.71970794375386 7.972088223280658 a52.73727535232513,52.73727535232513 0 0,0 -0.2204636233733383,-0.8806425853378346 l 30.85238288142226 -7.442117798545432" fill="#ffc412" stroke="none" /><path d="M 79.23777060512086 103.15116336523772 l -30.30416334841358 4.599379360544652 a51.65120889540145,51.65120889540145 0 0,0 -0.12584681520348087,-0.8801723324240787 l 30.37884421463366 -4.0770615561401735" fill="#ffaf10" stroke="none" /><path d="M 79.18660465613746 102.79330883721812 l -60.04007793600827 8.057814571584123 a81.57837348618713,81.57837348618713 0 0,0 -0.17480493737977915,-1.3933673430288631 l 60.16988438263489 -7.023129474267852" fill="#48f4ff" stroke="none" /><path d="M 79.1416061653843 102.43462659150553 l -60.16988438263489 7.023129474267852 a81.57837348618713,81.57837348618713 0 0,0 -0.15079450981054263,-1.3961698802663156 l 60.28186119394649 -5.986363272116754" fill="#48f4ff" stroke="none" /><line stroke="#e1ed5e" stroke-width="0.3" x1="15.007084014347285" x2="10.007500721073583" y1="101.09737516637583" y2="101.16192664675087" /><path d="M 14.007167355692545 101.11028546245083 a86.0,86.0 0 0,1 10.666146001902526,-42.60595125391555" fill="none" id="id22" stroke="none" /><text fill="#e1ed5e" style="font-size:6.75px; font-family:Arial;" text-anchor="middle"><textPath startOffset="22.20632615414155" xlink:href="#id22">October</textPath></text><path d="M 79.01574976396665 99.18683210126434 l -26.407796702675252 -1.0233376133724557 a47.42761711847606,47.42761711847606 0 0,0 0.038634066618108094,-0.8155040848008646 l 26.386269027823644 1.4777528047963293" fill="#ff5908" stroke="none" /><path d="M 79.16333360222342 97.38593545837743 l -60.22694305668301 -7.555772756029531 a81.69904753695643,81.69904753695643 0 0,0 0.18706747994005185,-1.393870009679948 l 60.087959577685126 8.591361107774139" fill="#49f2ff" stroke="none" /><path d="M 79.21141760316559 97.0276538004421 l -23.999346081822946 -3.4314203708783784 a45.24341679955178,45.24341679955178 0 0,0 0.11686612962118814,-0.770001777265446 l 23.936724058762454 3.8440212605359156" fill="#ff2a04" stroke="none" /><path d="M 79.62865764111835 94.90015583598534 l -58.76489456339604 -14.71144116614435 a81.57837348618713,81.57837348618713 0 0,0 0.3527435977428502,-1.3592649752726986 l 58.502954633782885 15.720802566965913" fill="#48f4ff" stroke="none" /><path d="M 79.81627453868168 94.20196356495316 l -40.710181941546224 -11.694526792233432 a63.35659182002327,63.35659182002327 0 0,0 0.3101278103904313,-1.0455968038435552 l 40.50284823404409 12.393552982823527" fill="#7cff26" stroke="none" /><line stroke="#e1ed5e" stroke-width="0.3" x1="26.266209847984243" x2="21.928928074336255" y1="57.71137044288968" y2="55.22380399835378" /><path d="M 25.398753493254645 57.2138571539825 a86.0,86.0 0 0,1 29.58750427330803,-30.4925239686951" fill="none" id="id23" stroke="none" /><text fill="#e1ed5e" style="font-size:6.75px; font-family:Arial;" text-anchor="middle"><textPath startOffset="21.46611528233685" xlink:href="#id23">November</textPath></text><path d="M 86.37877921826538 84.01681056812373 l -26.377918967056363 -30.95194494127081 a61.66715510925311,61.66715510925311 0 0,0 0.8138374883668089,-0.6815654917939951 l 25.841223941730444 31.40141159045862" fill="#98ff23" stroke="none" /><path d="M 86.65592168130627 83.78471172551755 l -30.211994756800575 -36.712629574601465 a68.54557600310304,68.54557600310304 0 0,0 0.9175204027576664,-0.7419043564296681 l 29.57557095547841 37.22724002829527" fill="#30ff33" stroke="none" /><path d="M 87.80319425747018 82.90503203632743 l -35.18393588616399 -49.31358828751242 a81.57837348618713,81.57837348618713 0 0,0 1.1501340986987605,-0.8057424363666343 l 34.32987064788157 49.911915566642996" fill="#48f4ff" stroke="none" /><path d="M 88.09926311788651 82.69761687909137 l -17.23332152045051 -25.055383909948276 a51.40986079386286,51.40986079386286 0 0,0 0.733435855002606,-0.4952191632848729 l 16.799480971041366 25.348314985531815" fill="#ffaa0f" stroke="none" /><line stroke="#e1ed5e" stroke-width="0.3" x1="56.76296977257108" x2="54.21961505331056" y1="26.818313649435495" y2="22.513508569990535" /><path d="M 56.25429882871898 25.957352633546506 a86.0,86.0 0 0,1 42.26535254187918,-11.944610805530505" fill="none" id="id24" stroke="none" /><text fill="#e1ed5e" style="font-size:6.75px; font-family:Arial;" text-anchor="middle"><textPath startOffset="22.20632615414155" xlink:href="#id24">December</textPath></text><path d="M 89.3179101791058 81.91981866633112 l -19.39714912383495 -32.8310264560006 a59.13300004309787,59.13300004309787 0 0,0 0.8808093158385353,-0.5102216080411188 l 18.829143075531093 33.16005222143177" fill="#c4ff1e" stroke="none" /><path d="M 89.63071344664047 81.73862282372117 l -17.994940534210095 -31.690935983773397 a57.44356333232771,57.44356333232771 0 0,0 0.8640494235498408,-0.48084256871902786 l 17.446767021588208 31.995993950052608" fill="#e2ff1b" stroke="none" /><path d="M 89.94658935756843 81.56283822128135 l -11.900774855785333 -21.825081965929922 a45.85885445847519,45.85885445847519 0 0,0 0.6963010906963037,-0.3719399282161152 l 11.523328718560725 22.026700620647787" fill="#ff3805" stroke="none" /><path d="M 90.26544431104013 81.39251694778311 l -16.893423655365726 -32.29157081279433 a57.44356333232771,57.44356333232771 0 0,0 0.8800887646527153,-0.4508156480881954 l 16.335074403124246 32.577578986195036" fill="#e2ff1b" stroke="none" /><path d="M 90.91171255644093 81.06846463323043 l -14.205141200983007 -29.59029791987427 a53.8233418092488,53.8233418092488 0 0,0 0.8386747705073792,-0.3937690501541307 l 13.69368821917602 29.83043195266841" fill="#ffd914" stroke="none" /><path d="M 91.56875222667455 80.76684994638697 l -14.631652961796807 -33.37735819328611 a57.44356333232771,57.44356333232771 0 0,0 0.9090204336063611,-0.389195109829675 l 14.054948770400138 33.62427283107857" fill="#e2ff1b" stroke="none" /><path d="M 91.90106846888425 80.62456947434976 l -14.008409204935237 -33.512934179320034 a57.32288928155842,57.32288928155842 0 0,0 0.9136616992541398,-0.37270554780480575 l 13.429463636092716 33.74910061330842" fill="#e4ff1a" stroke="none" /></svg>